<mxfile host="app.diagrams.net" modified="2023-01-14T08:08:46.651Z" agent="5.0 (Macintosh; Intel Mac OS X 10_15_7) AppleWebKit/537.36 (KHTML, like Gecko) Chrome/107.0.0.0 Safari/537.36" version="20.8.3" etag="iIlhmV5HI-vzhmUCFyNO" type="github">
  <diagram id="w7Sc2KH0BZR9_jBjd3I_" name="第 1 页">
    <mxGraphModel dx="1010" dy="2460" grid="1" gridSize="10" guides="1" tooltips="1" connect="1" arrows="1" fold="1" page="1" pageScale="1" pageWidth="827" pageHeight="1169" math="0" shadow="0">
      <root>
        <mxCell id="0" />
        <mxCell id="1" parent="0" />
        <mxCell id="7mfvvXFp1FGG9PbwMvhJ-1" value="" style="group" vertex="1" connectable="0" parent="1">
          <mxGeometry x="860" y="-20" width="1420" height="922" as="geometry" />
        </mxCell>
        <mxCell id="7mfvvXFp1FGG9PbwMvhJ-2" value="" style="group" vertex="1" connectable="0" parent="7mfvvXFp1FGG9PbwMvhJ-1">
          <mxGeometry x="284" width="746" height="922" as="geometry" />
        </mxCell>
        <mxCell id="7mfvvXFp1FGG9PbwMvhJ-3" value="" style="rounded=1;whiteSpace=wrap;html=1;strokeColor=#4472C4;strokeWidth=1;fontSize=24;fillColor=none;" vertex="1" parent="7mfvvXFp1FGG9PbwMvhJ-2">
          <mxGeometry width="746" height="922" as="geometry" />
        </mxCell>
        <mxCell id="7mfvvXFp1FGG9PbwMvhJ-4" value="" style="rounded=1;whiteSpace=wrap;html=1;strokeColor=#4472C4;strokeWidth=2;fontSize=18;fillColor=none;dashed=1;" vertex="1" parent="7mfvvXFp1FGG9PbwMvhJ-2">
          <mxGeometry x="26" y="68.77" width="680" height="170" as="geometry" />
        </mxCell>
        <mxCell id="7mfvvXFp1FGG9PbwMvhJ-5" value="Block Chain" style="text;html=1;align=center;verticalAlign=middle;resizable=0;points=[];autosize=1;strokeColor=none;fillColor=none;fontSize=18;" vertex="1" parent="7mfvvXFp1FGG9PbwMvhJ-2">
          <mxGeometry x="586" y="246.76999999999998" width="120" height="40" as="geometry" />
        </mxCell>
        <mxCell id="7mfvvXFp1FGG9PbwMvhJ-6" value="block" style="text;html=1;align=center;verticalAlign=middle;resizable=0;points=[];autosize=1;strokeColor=none;fillColor=none;fontSize=18;" vertex="1" parent="7mfvvXFp1FGG9PbwMvhJ-2">
          <mxGeometry x="119.5" y="206.76999999999998" width="70" height="40" as="geometry" />
        </mxCell>
        <mxCell id="7mfvvXFp1FGG9PbwMvhJ-7" value="" style="group" vertex="1" connectable="0" parent="7mfvvXFp1FGG9PbwMvhJ-2">
          <mxGeometry x="96" y="96.77000000000001" width="117" height="114" as="geometry" />
        </mxCell>
        <mxCell id="7mfvvXFp1FGG9PbwMvhJ-8" value="" style="rounded=1;whiteSpace=wrap;html=1;strokeColor=#4472C4;strokeWidth=1;fontSize=18;fillColor=none;" vertex="1" parent="7mfvvXFp1FGG9PbwMvhJ-7">
          <mxGeometry width="117" height="114" as="geometry" />
        </mxCell>
        <mxCell id="7mfvvXFp1FGG9PbwMvhJ-9" value="" style="group" vertex="1" connectable="0" parent="7mfvvXFp1FGG9PbwMvhJ-7">
          <mxGeometry x="4.470000000000027" y="13.22999999999999" width="112.53" height="87.53" as="geometry" />
        </mxCell>
        <mxCell id="7mfvvXFp1FGG9PbwMvhJ-10" value="" style="ellipse;whiteSpace=wrap;html=1;aspect=fixed;fillColor=#4472C4;strokeColor=#6c8ebf;rounded=0;sketch=0;strokeWidth=0.5;container=0;" vertex="1" parent="7mfvvXFp1FGG9PbwMvhJ-9">
          <mxGeometry x="94.42086394234846" y="51.81470397451284" width="16.810546885076754" height="16.810546885076754" as="geometry" />
        </mxCell>
        <mxCell id="7mfvvXFp1FGG9PbwMvhJ-11" value="" style="ellipse;whiteSpace=wrap;html=1;aspect=fixed;fillColor=#4472C4;strokeColor=#6C8EBF;rounded=0;sketch=0;strokeWidth=0.5;container=0;" vertex="1" parent="7mfvvXFp1FGG9PbwMvhJ-9">
          <mxGeometry y="51.81470397451284" width="15.929940668128474" height="15.929940668128474" as="geometry" />
        </mxCell>
        <mxCell id="7mfvvXFp1FGG9PbwMvhJ-12" value="" style="ellipse;whiteSpace=wrap;html=1;aspect=fixed;fillColor=#4472C4;strokeColor=#6c8ebf;rounded=0;sketch=0;strokeWidth=0.5;container=0;gradientColor=none;" vertex="1" parent="7mfvvXFp1FGG9PbwMvhJ-9">
          <mxGeometry x="-1.2161944968201182" y="17.945230575261196" width="15.929940668128474" height="15.929940668128474" as="geometry" />
        </mxCell>
        <mxCell id="7mfvvXFp1FGG9PbwMvhJ-13" value="" style="ellipse;whiteSpace=wrap;html=1;aspect=fixed;dashed=1;fillColor=#dae8fc;strokeColor=#6c8ebf;rounded=0;sketch=0;strokeWidth=0.5;container=0;" vertex="1" parent="7mfvvXFp1FGG9PbwMvhJ-9">
          <mxGeometry x="46.03296170464157" width="15.929940668128474" height="15.929940668128474" as="geometry" />
        </mxCell>
        <mxCell id="7mfvvXFp1FGG9PbwMvhJ-14" style="edgeStyle=none;rounded=0;orthogonalLoop=1;jettySize=auto;html=1;exitX=1;exitY=0.5;exitDx=0;exitDy=0;dashed=1;sketch=0;entryX=0;entryY=0.5;entryDx=0;entryDy=0;strokeWidth=0.5;endArrow=none;endFill=0;" edge="1" parent="7mfvvXFp1FGG9PbwMvhJ-9" source="7mfvvXFp1FGG9PbwMvhJ-11" target="7mfvvXFp1FGG9PbwMvhJ-13">
          <mxGeometry relative="1" as="geometry">
            <mxPoint x="47.25146428198571" y="18.22037856037659" as="targetPoint" />
          </mxGeometry>
        </mxCell>
        <mxCell id="7mfvvXFp1FGG9PbwMvhJ-15" style="edgeStyle=none;rounded=0;orthogonalLoop=1;jettySize=auto;html=1;exitX=1;exitY=0.5;exitDx=0;exitDy=0;entryX=0;entryY=0.5;entryDx=0;entryDy=0;dashed=1;sketch=0;strokeWidth=0.5;endArrow=none;endFill=0;" edge="1" parent="7mfvvXFp1FGG9PbwMvhJ-9" source="7mfvvXFp1FGG9PbwMvhJ-12" target="7mfvvXFp1FGG9PbwMvhJ-13">
          <mxGeometry relative="1" as="geometry" />
        </mxCell>
        <mxCell id="7mfvvXFp1FGG9PbwMvhJ-16" value="" style="ellipse;whiteSpace=wrap;html=1;aspect=fixed;dashed=1;fillColor=#dae8fc;strokeColor=#6c8ebf;rounded=0;sketch=0;strokeWidth=0.5;container=0;" vertex="1" parent="7mfvvXFp1FGG9PbwMvhJ-9">
          <mxGeometry x="46.30052449394203" y="36.34194118405773" width="15.478347736360126" height="15.478347736360126" as="geometry" />
        </mxCell>
        <mxCell id="7mfvvXFp1FGG9PbwMvhJ-17" style="edgeStyle=none;rounded=0;orthogonalLoop=1;jettySize=auto;html=1;exitX=1;exitY=0.5;exitDx=0;exitDy=0;entryX=0;entryY=0.5;entryDx=0;entryDy=0;dashed=1;sketch=0;strokeWidth=0.5;endArrow=none;endFill=0;" edge="1" parent="7mfvvXFp1FGG9PbwMvhJ-9" source="7mfvvXFp1FGG9PbwMvhJ-11" target="7mfvvXFp1FGG9PbwMvhJ-16">
          <mxGeometry relative="1" as="geometry" />
        </mxCell>
        <mxCell id="7mfvvXFp1FGG9PbwMvhJ-18" style="edgeStyle=none;rounded=0;orthogonalLoop=1;jettySize=auto;html=1;exitX=1;exitY=0.5;exitDx=0;exitDy=0;entryX=0;entryY=0.5;entryDx=0;entryDy=0;dashed=1;sketch=0;strokeWidth=0.5;endArrow=none;endFill=0;" edge="1" parent="7mfvvXFp1FGG9PbwMvhJ-9" source="7mfvvXFp1FGG9PbwMvhJ-12" target="7mfvvXFp1FGG9PbwMvhJ-16">
          <mxGeometry relative="1" as="geometry" />
        </mxCell>
        <mxCell id="7mfvvXFp1FGG9PbwMvhJ-19" value="" style="ellipse;whiteSpace=wrap;html=1;aspect=fixed;fillColor=#dae8fc;strokeColor=#6c8ebf;rounded=0;sketch=0;strokeWidth=0.5;container=0;" vertex="1" parent="7mfvvXFp1FGG9PbwMvhJ-9">
          <mxGeometry x="45.08432999712191" y="70.71945311492327" width="16.810546885076754" height="16.810546885076754" as="geometry" />
        </mxCell>
        <mxCell id="7mfvvXFp1FGG9PbwMvhJ-20" style="edgeStyle=none;rounded=0;orthogonalLoop=1;jettySize=auto;html=1;exitX=1;exitY=0.5;exitDx=0;exitDy=0;sketch=0;entryX=0;entryY=0.5;entryDx=0;entryDy=0;strokeWidth=0.5;endArrow=none;endFill=0;" edge="1" parent="7mfvvXFp1FGG9PbwMvhJ-9" source="7mfvvXFp1FGG9PbwMvhJ-12" target="7mfvvXFp1FGG9PbwMvhJ-19">
          <mxGeometry relative="1" as="geometry">
            <mxPoint x="47.25146428198571" y="91.7285379604534" as="targetPoint" />
          </mxGeometry>
        </mxCell>
        <mxCell id="7mfvvXFp1FGG9PbwMvhJ-21" style="edgeStyle=none;rounded=0;orthogonalLoop=1;jettySize=auto;html=1;exitX=1;exitY=0.5;exitDx=0;exitDy=0;entryX=0;entryY=0.5;entryDx=0;entryDy=0;sketch=0;strokeWidth=0.5;endArrow=none;endFill=0;" edge="1" parent="7mfvvXFp1FGG9PbwMvhJ-9" source="7mfvvXFp1FGG9PbwMvhJ-11" target="7mfvvXFp1FGG9PbwMvhJ-19">
          <mxGeometry relative="1" as="geometry" />
        </mxCell>
        <mxCell id="7mfvvXFp1FGG9PbwMvhJ-22" style="edgeStyle=none;rounded=0;orthogonalLoop=1;jettySize=auto;html=1;exitX=1;exitY=0.5;exitDx=0;exitDy=0;entryX=0;entryY=0.5;entryDx=0;entryDy=0;dashed=1;sketch=0;strokeWidth=0.5;endArrow=none;endFill=0;" edge="1" parent="7mfvvXFp1FGG9PbwMvhJ-9" source="7mfvvXFp1FGG9PbwMvhJ-16" target="7mfvvXFp1FGG9PbwMvhJ-27">
          <mxGeometry relative="1" as="geometry">
            <mxPoint x="97.93632551299794" y="6.147308783696564" as="targetPoint" />
          </mxGeometry>
        </mxCell>
        <mxCell id="7mfvvXFp1FGG9PbwMvhJ-23" style="edgeStyle=none;rounded=0;orthogonalLoop=1;jettySize=auto;html=1;exitX=1;exitY=0.5;exitDx=0;exitDy=0;dashed=1;sketch=0;entryX=0;entryY=0.5;entryDx=0;entryDy=0;strokeWidth=0.5;endArrow=none;endFill=0;" edge="1" parent="7mfvvXFp1FGG9PbwMvhJ-9" source="7mfvvXFp1FGG9PbwMvhJ-19" target="7mfvvXFp1FGG9PbwMvhJ-27">
          <mxGeometry relative="1" as="geometry">
            <mxPoint x="97.93632551299794" y="6.147308783696564" as="targetPoint" />
          </mxGeometry>
        </mxCell>
        <mxCell id="7mfvvXFp1FGG9PbwMvhJ-24" style="edgeStyle=none;rounded=0;orthogonalLoop=1;jettySize=auto;html=1;exitX=1;exitY=0.5;exitDx=0;exitDy=0;entryX=0;entryY=0.5;entryDx=0;entryDy=0;dashed=1;sketch=0;strokeWidth=0.5;endArrow=none;endFill=0;" edge="1" parent="7mfvvXFp1FGG9PbwMvhJ-9" source="7mfvvXFp1FGG9PbwMvhJ-13" target="7mfvvXFp1FGG9PbwMvhJ-10">
          <mxGeometry relative="1" as="geometry">
            <mxPoint x="97.93632551299794" y="44.07553010633276" as="targetPoint" />
          </mxGeometry>
        </mxCell>
        <mxCell id="7mfvvXFp1FGG9PbwMvhJ-25" style="edgeStyle=none;rounded=0;orthogonalLoop=1;jettySize=auto;html=1;exitX=1;exitY=0.5;exitDx=0;exitDy=0;entryX=0;entryY=0.5;entryDx=0;entryDy=0;dashed=1;sketch=0;strokeWidth=0.5;endArrow=none;endFill=0;" edge="1" parent="7mfvvXFp1FGG9PbwMvhJ-9" source="7mfvvXFp1FGG9PbwMvhJ-19" target="7mfvvXFp1FGG9PbwMvhJ-10">
          <mxGeometry relative="1" as="geometry">
            <mxPoint x="97.93632551299794" y="44.07553010633276" as="targetPoint" />
          </mxGeometry>
        </mxCell>
        <mxCell id="7mfvvXFp1FGG9PbwMvhJ-26" style="edgeStyle=none;rounded=0;orthogonalLoop=1;jettySize=auto;html=1;exitX=1;exitY=0.5;exitDx=0;exitDy=0;entryX=0;entryY=0.5;entryDx=0;entryDy=0;dashed=1;sketch=0;strokeWidth=0.5;endArrow=none;endFill=0;" edge="1" parent="7mfvvXFp1FGG9PbwMvhJ-9" source="7mfvvXFp1FGG9PbwMvhJ-16" target="7mfvvXFp1FGG9PbwMvhJ-10">
          <mxGeometry relative="1" as="geometry">
            <mxPoint x="97.93632551299794" y="82.51179347720839" as="targetPoint" />
          </mxGeometry>
        </mxCell>
        <mxCell id="7mfvvXFp1FGG9PbwMvhJ-27" value="" style="ellipse;whiteSpace=wrap;html=1;aspect=fixed;fillColor=#4472C4;strokeColor=#6c8ebf;rounded=0;sketch=0;strokeWidth=0.5;container=0;" vertex="1" parent="7mfvvXFp1FGG9PbwMvhJ-9">
          <mxGeometry x="94.42086394234846" y="17.945234091886743" width="16.810546885076754" height="16.810546885076754" as="geometry" />
        </mxCell>
        <mxCell id="7mfvvXFp1FGG9PbwMvhJ-28" style="edgeStyle=none;rounded=0;orthogonalLoop=1;jettySize=auto;html=1;exitX=1;exitY=0.5;exitDx=0;exitDy=0;entryX=0;entryY=0.5;entryDx=0;entryDy=0;dashed=1;sketch=0;strokeWidth=0.5;endArrow=none;endFill=0;" edge="1" parent="7mfvvXFp1FGG9PbwMvhJ-9" source="7mfvvXFp1FGG9PbwMvhJ-13" target="7mfvvXFp1FGG9PbwMvhJ-27">
          <mxGeometry relative="1" as="geometry">
            <mxPoint x="111.44758689784754" y="76.98536500895109" as="targetPoint" />
            <mxPoint x="76.57160551979462" y="16.99682896943114" as="sourcePoint" />
          </mxGeometry>
        </mxCell>
        <mxCell id="7mfvvXFp1FGG9PbwMvhJ-29" value="" style="group" vertex="1" connectable="0" parent="7mfvvXFp1FGG9PbwMvhJ-2">
          <mxGeometry x="526" y="96.77000000000001" width="117" height="114" as="geometry" />
        </mxCell>
        <mxCell id="7mfvvXFp1FGG9PbwMvhJ-30" value="" style="rounded=1;whiteSpace=wrap;html=1;strokeColor=#4472C4;strokeWidth=1;fontSize=18;fillColor=none;" vertex="1" parent="7mfvvXFp1FGG9PbwMvhJ-29">
          <mxGeometry width="117" height="114" as="geometry" />
        </mxCell>
        <mxCell id="7mfvvXFp1FGG9PbwMvhJ-31" value="" style="group" vertex="1" connectable="0" parent="7mfvvXFp1FGG9PbwMvhJ-29">
          <mxGeometry x="4.470000000000027" y="13.22999999999999" width="112.53" height="87.53" as="geometry" />
        </mxCell>
        <mxCell id="7mfvvXFp1FGG9PbwMvhJ-32" value="" style="ellipse;whiteSpace=wrap;html=1;aspect=fixed;fillColor=#4472C4;strokeColor=#6c8ebf;rounded=0;sketch=0;strokeWidth=0.5;container=0;" vertex="1" parent="7mfvvXFp1FGG9PbwMvhJ-31">
          <mxGeometry x="94.42086394234846" y="51.81470397451284" width="16.810546885076754" height="16.810546885076754" as="geometry" />
        </mxCell>
        <mxCell id="7mfvvXFp1FGG9PbwMvhJ-33" value="" style="ellipse;whiteSpace=wrap;html=1;aspect=fixed;fillColor=#4472C4;strokeColor=#6C8EBF;rounded=0;sketch=0;strokeWidth=0.5;container=0;" vertex="1" parent="7mfvvXFp1FGG9PbwMvhJ-31">
          <mxGeometry y="51.81470397451284" width="15.929940668128474" height="15.929940668128474" as="geometry" />
        </mxCell>
        <mxCell id="7mfvvXFp1FGG9PbwMvhJ-34" value="" style="ellipse;whiteSpace=wrap;html=1;aspect=fixed;fillColor=#4472C4;strokeColor=#6c8ebf;rounded=0;sketch=0;strokeWidth=0.5;container=0;gradientColor=none;" vertex="1" parent="7mfvvXFp1FGG9PbwMvhJ-31">
          <mxGeometry x="-1.2161944968201182" y="17.945230575261196" width="15.929940668128474" height="15.929940668128474" as="geometry" />
        </mxCell>
        <mxCell id="7mfvvXFp1FGG9PbwMvhJ-35" value="" style="ellipse;whiteSpace=wrap;html=1;aspect=fixed;dashed=1;fillColor=#dae8fc;strokeColor=#6c8ebf;rounded=0;sketch=0;strokeWidth=0.5;container=0;" vertex="1" parent="7mfvvXFp1FGG9PbwMvhJ-31">
          <mxGeometry x="46.03296170464157" width="15.929940668128474" height="15.929940668128474" as="geometry" />
        </mxCell>
        <mxCell id="7mfvvXFp1FGG9PbwMvhJ-36" style="edgeStyle=none;rounded=0;orthogonalLoop=1;jettySize=auto;html=1;exitX=1;exitY=0.5;exitDx=0;exitDy=0;dashed=1;sketch=0;entryX=0;entryY=0.5;entryDx=0;entryDy=0;strokeWidth=0.5;endArrow=none;endFill=0;" edge="1" parent="7mfvvXFp1FGG9PbwMvhJ-31" source="7mfvvXFp1FGG9PbwMvhJ-33" target="7mfvvXFp1FGG9PbwMvhJ-35">
          <mxGeometry relative="1" as="geometry">
            <mxPoint x="47.25146428198571" y="18.22037856037659" as="targetPoint" />
          </mxGeometry>
        </mxCell>
        <mxCell id="7mfvvXFp1FGG9PbwMvhJ-37" style="edgeStyle=none;rounded=0;orthogonalLoop=1;jettySize=auto;html=1;exitX=1;exitY=0.5;exitDx=0;exitDy=0;entryX=0;entryY=0.5;entryDx=0;entryDy=0;dashed=1;sketch=0;strokeWidth=0.5;endArrow=none;endFill=0;" edge="1" parent="7mfvvXFp1FGG9PbwMvhJ-31" source="7mfvvXFp1FGG9PbwMvhJ-34" target="7mfvvXFp1FGG9PbwMvhJ-35">
          <mxGeometry relative="1" as="geometry" />
        </mxCell>
        <mxCell id="7mfvvXFp1FGG9PbwMvhJ-38" value="" style="ellipse;whiteSpace=wrap;html=1;aspect=fixed;dashed=1;fillColor=#dae8fc;strokeColor=#6c8ebf;rounded=0;sketch=0;strokeWidth=0.5;container=0;" vertex="1" parent="7mfvvXFp1FGG9PbwMvhJ-31">
          <mxGeometry x="46.30052449394203" y="36.34194118405773" width="15.478347736360126" height="15.478347736360126" as="geometry" />
        </mxCell>
        <mxCell id="7mfvvXFp1FGG9PbwMvhJ-39" style="edgeStyle=none;rounded=0;orthogonalLoop=1;jettySize=auto;html=1;exitX=1;exitY=0.5;exitDx=0;exitDy=0;entryX=0;entryY=0.5;entryDx=0;entryDy=0;dashed=1;sketch=0;strokeWidth=0.5;endArrow=none;endFill=0;" edge="1" parent="7mfvvXFp1FGG9PbwMvhJ-31" source="7mfvvXFp1FGG9PbwMvhJ-33" target="7mfvvXFp1FGG9PbwMvhJ-38">
          <mxGeometry relative="1" as="geometry" />
        </mxCell>
        <mxCell id="7mfvvXFp1FGG9PbwMvhJ-40" style="edgeStyle=none;rounded=0;orthogonalLoop=1;jettySize=auto;html=1;exitX=1;exitY=0.5;exitDx=0;exitDy=0;entryX=0;entryY=0.5;entryDx=0;entryDy=0;dashed=1;sketch=0;strokeWidth=0.5;endArrow=none;endFill=0;" edge="1" parent="7mfvvXFp1FGG9PbwMvhJ-31" source="7mfvvXFp1FGG9PbwMvhJ-34" target="7mfvvXFp1FGG9PbwMvhJ-38">
          <mxGeometry relative="1" as="geometry" />
        </mxCell>
        <mxCell id="7mfvvXFp1FGG9PbwMvhJ-41" value="" style="ellipse;whiteSpace=wrap;html=1;aspect=fixed;fillColor=#dae8fc;strokeColor=#6c8ebf;rounded=0;sketch=0;strokeWidth=0.5;container=0;" vertex="1" parent="7mfvvXFp1FGG9PbwMvhJ-31">
          <mxGeometry x="45.08432999712191" y="70.71945311492327" width="16.810546885076754" height="16.810546885076754" as="geometry" />
        </mxCell>
        <mxCell id="7mfvvXFp1FGG9PbwMvhJ-42" style="edgeStyle=none;rounded=0;orthogonalLoop=1;jettySize=auto;html=1;exitX=1;exitY=0.5;exitDx=0;exitDy=0;sketch=0;entryX=0;entryY=0.5;entryDx=0;entryDy=0;strokeWidth=0.5;endArrow=none;endFill=0;" edge="1" parent="7mfvvXFp1FGG9PbwMvhJ-31" source="7mfvvXFp1FGG9PbwMvhJ-34" target="7mfvvXFp1FGG9PbwMvhJ-41">
          <mxGeometry relative="1" as="geometry">
            <mxPoint x="47.25146428198571" y="91.7285379604534" as="targetPoint" />
          </mxGeometry>
        </mxCell>
        <mxCell id="7mfvvXFp1FGG9PbwMvhJ-43" style="edgeStyle=none;rounded=0;orthogonalLoop=1;jettySize=auto;html=1;exitX=1;exitY=0.5;exitDx=0;exitDy=0;entryX=0;entryY=0.5;entryDx=0;entryDy=0;sketch=0;strokeWidth=0.5;endArrow=none;endFill=0;" edge="1" parent="7mfvvXFp1FGG9PbwMvhJ-31" source="7mfvvXFp1FGG9PbwMvhJ-33" target="7mfvvXFp1FGG9PbwMvhJ-41">
          <mxGeometry relative="1" as="geometry" />
        </mxCell>
        <mxCell id="7mfvvXFp1FGG9PbwMvhJ-44" style="edgeStyle=none;rounded=0;orthogonalLoop=1;jettySize=auto;html=1;exitX=1;exitY=0.5;exitDx=0;exitDy=0;entryX=0;entryY=0.5;entryDx=0;entryDy=0;dashed=1;sketch=0;strokeWidth=0.5;endArrow=none;endFill=0;" edge="1" parent="7mfvvXFp1FGG9PbwMvhJ-31" source="7mfvvXFp1FGG9PbwMvhJ-38" target="7mfvvXFp1FGG9PbwMvhJ-49">
          <mxGeometry relative="1" as="geometry">
            <mxPoint x="97.93632551299794" y="6.147308783696564" as="targetPoint" />
          </mxGeometry>
        </mxCell>
        <mxCell id="7mfvvXFp1FGG9PbwMvhJ-45" style="edgeStyle=none;rounded=0;orthogonalLoop=1;jettySize=auto;html=1;exitX=1;exitY=0.5;exitDx=0;exitDy=0;dashed=1;sketch=0;entryX=0;entryY=0.5;entryDx=0;entryDy=0;strokeWidth=0.5;endArrow=none;endFill=0;" edge="1" parent="7mfvvXFp1FGG9PbwMvhJ-31" source="7mfvvXFp1FGG9PbwMvhJ-41" target="7mfvvXFp1FGG9PbwMvhJ-49">
          <mxGeometry relative="1" as="geometry">
            <mxPoint x="97.93632551299794" y="6.147308783696564" as="targetPoint" />
          </mxGeometry>
        </mxCell>
        <mxCell id="7mfvvXFp1FGG9PbwMvhJ-46" style="edgeStyle=none;rounded=0;orthogonalLoop=1;jettySize=auto;html=1;exitX=1;exitY=0.5;exitDx=0;exitDy=0;entryX=0;entryY=0.5;entryDx=0;entryDy=0;dashed=1;sketch=0;strokeWidth=0.5;endArrow=none;endFill=0;" edge="1" parent="7mfvvXFp1FGG9PbwMvhJ-31" source="7mfvvXFp1FGG9PbwMvhJ-35" target="7mfvvXFp1FGG9PbwMvhJ-32">
          <mxGeometry relative="1" as="geometry">
            <mxPoint x="97.93632551299794" y="44.07553010633276" as="targetPoint" />
          </mxGeometry>
        </mxCell>
        <mxCell id="7mfvvXFp1FGG9PbwMvhJ-47" style="edgeStyle=none;rounded=0;orthogonalLoop=1;jettySize=auto;html=1;exitX=1;exitY=0.5;exitDx=0;exitDy=0;entryX=0;entryY=0.5;entryDx=0;entryDy=0;dashed=1;sketch=0;strokeWidth=0.5;endArrow=none;endFill=0;" edge="1" parent="7mfvvXFp1FGG9PbwMvhJ-31" source="7mfvvXFp1FGG9PbwMvhJ-41" target="7mfvvXFp1FGG9PbwMvhJ-32">
          <mxGeometry relative="1" as="geometry">
            <mxPoint x="97.93632551299794" y="44.07553010633276" as="targetPoint" />
          </mxGeometry>
        </mxCell>
        <mxCell id="7mfvvXFp1FGG9PbwMvhJ-48" style="edgeStyle=none;rounded=0;orthogonalLoop=1;jettySize=auto;html=1;exitX=1;exitY=0.5;exitDx=0;exitDy=0;entryX=0;entryY=0.5;entryDx=0;entryDy=0;dashed=1;sketch=0;strokeWidth=0.5;endArrow=none;endFill=0;" edge="1" parent="7mfvvXFp1FGG9PbwMvhJ-31" source="7mfvvXFp1FGG9PbwMvhJ-38" target="7mfvvXFp1FGG9PbwMvhJ-32">
          <mxGeometry relative="1" as="geometry">
            <mxPoint x="97.93632551299794" y="82.51179347720839" as="targetPoint" />
          </mxGeometry>
        </mxCell>
        <mxCell id="7mfvvXFp1FGG9PbwMvhJ-49" value="" style="ellipse;whiteSpace=wrap;html=1;aspect=fixed;fillColor=#4472C4;strokeColor=#6c8ebf;rounded=0;sketch=0;strokeWidth=0.5;container=0;" vertex="1" parent="7mfvvXFp1FGG9PbwMvhJ-31">
          <mxGeometry x="94.42086394234846" y="17.945234091886743" width="16.810546885076754" height="16.810546885076754" as="geometry" />
        </mxCell>
        <mxCell id="7mfvvXFp1FGG9PbwMvhJ-50" style="edgeStyle=none;rounded=0;orthogonalLoop=1;jettySize=auto;html=1;exitX=1;exitY=0.5;exitDx=0;exitDy=0;entryX=0;entryY=0.5;entryDx=0;entryDy=0;dashed=1;sketch=0;strokeWidth=0.5;endArrow=none;endFill=0;" edge="1" parent="7mfvvXFp1FGG9PbwMvhJ-31" source="7mfvvXFp1FGG9PbwMvhJ-35" target="7mfvvXFp1FGG9PbwMvhJ-49">
          <mxGeometry relative="1" as="geometry">
            <mxPoint x="111.44758689784754" y="76.98536500895109" as="targetPoint" />
            <mxPoint x="76.57160551979462" y="16.99682896943114" as="sourcePoint" />
          </mxGeometry>
        </mxCell>
        <mxCell id="7mfvvXFp1FGG9PbwMvhJ-51" value="" style="group" vertex="1" connectable="0" parent="7mfvvXFp1FGG9PbwMvhJ-2">
          <mxGeometry x="276" y="96.77000000000001" width="117" height="114" as="geometry" />
        </mxCell>
        <mxCell id="7mfvvXFp1FGG9PbwMvhJ-52" value="" style="rounded=1;whiteSpace=wrap;html=1;strokeColor=#4472C4;strokeWidth=1;fontSize=18;fillColor=none;" vertex="1" parent="7mfvvXFp1FGG9PbwMvhJ-51">
          <mxGeometry width="117" height="114" as="geometry" />
        </mxCell>
        <mxCell id="7mfvvXFp1FGG9PbwMvhJ-53" value="" style="group" vertex="1" connectable="0" parent="7mfvvXFp1FGG9PbwMvhJ-51">
          <mxGeometry x="4.470000000000027" y="13.22999999999999" width="112.53" height="87.53" as="geometry" />
        </mxCell>
        <mxCell id="7mfvvXFp1FGG9PbwMvhJ-54" value="" style="ellipse;whiteSpace=wrap;html=1;aspect=fixed;fillColor=#4472C4;strokeColor=#6c8ebf;rounded=0;sketch=0;strokeWidth=0.5;container=0;" vertex="1" parent="7mfvvXFp1FGG9PbwMvhJ-53">
          <mxGeometry x="94.42086394234846" y="51.81470397451284" width="16.810546885076754" height="16.810546885076754" as="geometry" />
        </mxCell>
        <mxCell id="7mfvvXFp1FGG9PbwMvhJ-55" value="" style="ellipse;whiteSpace=wrap;html=1;aspect=fixed;fillColor=#4472C4;strokeColor=#6C8EBF;rounded=0;sketch=0;strokeWidth=0.5;container=0;" vertex="1" parent="7mfvvXFp1FGG9PbwMvhJ-53">
          <mxGeometry y="51.81470397451284" width="15.929940668128474" height="15.929940668128474" as="geometry" />
        </mxCell>
        <mxCell id="7mfvvXFp1FGG9PbwMvhJ-56" value="" style="ellipse;whiteSpace=wrap;html=1;aspect=fixed;fillColor=#4472C4;strokeColor=#6c8ebf;rounded=0;sketch=0;strokeWidth=0.5;container=0;gradientColor=none;" vertex="1" parent="7mfvvXFp1FGG9PbwMvhJ-53">
          <mxGeometry x="-1.2161944968201182" y="17.945230575261196" width="15.929940668128474" height="15.929940668128474" as="geometry" />
        </mxCell>
        <mxCell id="7mfvvXFp1FGG9PbwMvhJ-57" value="" style="ellipse;whiteSpace=wrap;html=1;aspect=fixed;dashed=1;fillColor=#dae8fc;strokeColor=#6c8ebf;rounded=0;sketch=0;strokeWidth=0.5;container=0;" vertex="1" parent="7mfvvXFp1FGG9PbwMvhJ-53">
          <mxGeometry x="46.03296170464157" width="15.929940668128474" height="15.929940668128474" as="geometry" />
        </mxCell>
        <mxCell id="7mfvvXFp1FGG9PbwMvhJ-58" style="edgeStyle=none;rounded=0;orthogonalLoop=1;jettySize=auto;html=1;exitX=1;exitY=0.5;exitDx=0;exitDy=0;dashed=1;sketch=0;entryX=0;entryY=0.5;entryDx=0;entryDy=0;strokeWidth=0.5;endArrow=none;endFill=0;" edge="1" parent="7mfvvXFp1FGG9PbwMvhJ-53" source="7mfvvXFp1FGG9PbwMvhJ-55" target="7mfvvXFp1FGG9PbwMvhJ-57">
          <mxGeometry relative="1" as="geometry">
            <mxPoint x="47.25146428198571" y="18.22037856037659" as="targetPoint" />
          </mxGeometry>
        </mxCell>
        <mxCell id="7mfvvXFp1FGG9PbwMvhJ-59" style="edgeStyle=none;rounded=0;orthogonalLoop=1;jettySize=auto;html=1;exitX=1;exitY=0.5;exitDx=0;exitDy=0;entryX=0;entryY=0.5;entryDx=0;entryDy=0;dashed=1;sketch=0;strokeWidth=0.5;endArrow=none;endFill=0;" edge="1" parent="7mfvvXFp1FGG9PbwMvhJ-53" source="7mfvvXFp1FGG9PbwMvhJ-56" target="7mfvvXFp1FGG9PbwMvhJ-57">
          <mxGeometry relative="1" as="geometry" />
        </mxCell>
        <mxCell id="7mfvvXFp1FGG9PbwMvhJ-60" value="" style="ellipse;whiteSpace=wrap;html=1;aspect=fixed;dashed=1;fillColor=#dae8fc;strokeColor=#6c8ebf;rounded=0;sketch=0;strokeWidth=0.5;container=0;" vertex="1" parent="7mfvvXFp1FGG9PbwMvhJ-53">
          <mxGeometry x="46.30052449394203" y="36.34194118405773" width="15.478347736360126" height="15.478347736360126" as="geometry" />
        </mxCell>
        <mxCell id="7mfvvXFp1FGG9PbwMvhJ-61" style="edgeStyle=none;rounded=0;orthogonalLoop=1;jettySize=auto;html=1;exitX=1;exitY=0.5;exitDx=0;exitDy=0;entryX=0;entryY=0.5;entryDx=0;entryDy=0;dashed=1;sketch=0;strokeWidth=0.5;endArrow=none;endFill=0;" edge="1" parent="7mfvvXFp1FGG9PbwMvhJ-53" source="7mfvvXFp1FGG9PbwMvhJ-55" target="7mfvvXFp1FGG9PbwMvhJ-60">
          <mxGeometry relative="1" as="geometry" />
        </mxCell>
        <mxCell id="7mfvvXFp1FGG9PbwMvhJ-62" style="edgeStyle=none;rounded=0;orthogonalLoop=1;jettySize=auto;html=1;exitX=1;exitY=0.5;exitDx=0;exitDy=0;entryX=0;entryY=0.5;entryDx=0;entryDy=0;dashed=1;sketch=0;strokeWidth=0.5;endArrow=none;endFill=0;" edge="1" parent="7mfvvXFp1FGG9PbwMvhJ-53" source="7mfvvXFp1FGG9PbwMvhJ-56" target="7mfvvXFp1FGG9PbwMvhJ-60">
          <mxGeometry relative="1" as="geometry" />
        </mxCell>
        <mxCell id="7mfvvXFp1FGG9PbwMvhJ-63" value="" style="ellipse;whiteSpace=wrap;html=1;aspect=fixed;fillColor=#dae8fc;strokeColor=#6c8ebf;rounded=0;sketch=0;strokeWidth=0.5;container=0;" vertex="1" parent="7mfvvXFp1FGG9PbwMvhJ-53">
          <mxGeometry x="45.08432999712191" y="70.71945311492327" width="16.810546885076754" height="16.810546885076754" as="geometry" />
        </mxCell>
        <mxCell id="7mfvvXFp1FGG9PbwMvhJ-64" style="edgeStyle=none;rounded=0;orthogonalLoop=1;jettySize=auto;html=1;exitX=1;exitY=0.5;exitDx=0;exitDy=0;sketch=0;entryX=0;entryY=0.5;entryDx=0;entryDy=0;strokeWidth=0.5;endArrow=none;endFill=0;" edge="1" parent="7mfvvXFp1FGG9PbwMvhJ-53" source="7mfvvXFp1FGG9PbwMvhJ-56" target="7mfvvXFp1FGG9PbwMvhJ-63">
          <mxGeometry relative="1" as="geometry">
            <mxPoint x="47.25146428198571" y="91.7285379604534" as="targetPoint" />
          </mxGeometry>
        </mxCell>
        <mxCell id="7mfvvXFp1FGG9PbwMvhJ-65" style="edgeStyle=none;rounded=0;orthogonalLoop=1;jettySize=auto;html=1;exitX=1;exitY=0.5;exitDx=0;exitDy=0;entryX=0;entryY=0.5;entryDx=0;entryDy=0;sketch=0;strokeWidth=0.5;endArrow=none;endFill=0;" edge="1" parent="7mfvvXFp1FGG9PbwMvhJ-53" source="7mfvvXFp1FGG9PbwMvhJ-55" target="7mfvvXFp1FGG9PbwMvhJ-63">
          <mxGeometry relative="1" as="geometry" />
        </mxCell>
        <mxCell id="7mfvvXFp1FGG9PbwMvhJ-66" style="edgeStyle=none;rounded=0;orthogonalLoop=1;jettySize=auto;html=1;exitX=1;exitY=0.5;exitDx=0;exitDy=0;entryX=0;entryY=0.5;entryDx=0;entryDy=0;dashed=1;sketch=0;strokeWidth=0.5;endArrow=none;endFill=0;" edge="1" parent="7mfvvXFp1FGG9PbwMvhJ-53" source="7mfvvXFp1FGG9PbwMvhJ-60" target="7mfvvXFp1FGG9PbwMvhJ-71">
          <mxGeometry relative="1" as="geometry">
            <mxPoint x="97.93632551299794" y="6.147308783696564" as="targetPoint" />
          </mxGeometry>
        </mxCell>
        <mxCell id="7mfvvXFp1FGG9PbwMvhJ-67" style="edgeStyle=none;rounded=0;orthogonalLoop=1;jettySize=auto;html=1;exitX=1;exitY=0.5;exitDx=0;exitDy=0;dashed=1;sketch=0;entryX=0;entryY=0.5;entryDx=0;entryDy=0;strokeWidth=0.5;endArrow=none;endFill=0;" edge="1" parent="7mfvvXFp1FGG9PbwMvhJ-53" source="7mfvvXFp1FGG9PbwMvhJ-63" target="7mfvvXFp1FGG9PbwMvhJ-71">
          <mxGeometry relative="1" as="geometry">
            <mxPoint x="97.93632551299794" y="6.147308783696564" as="targetPoint" />
          </mxGeometry>
        </mxCell>
        <mxCell id="7mfvvXFp1FGG9PbwMvhJ-68" style="edgeStyle=none;rounded=0;orthogonalLoop=1;jettySize=auto;html=1;exitX=1;exitY=0.5;exitDx=0;exitDy=0;entryX=0;entryY=0.5;entryDx=0;entryDy=0;dashed=1;sketch=0;strokeWidth=0.5;endArrow=none;endFill=0;" edge="1" parent="7mfvvXFp1FGG9PbwMvhJ-53" source="7mfvvXFp1FGG9PbwMvhJ-57" target="7mfvvXFp1FGG9PbwMvhJ-54">
          <mxGeometry relative="1" as="geometry">
            <mxPoint x="97.93632551299794" y="44.07553010633276" as="targetPoint" />
          </mxGeometry>
        </mxCell>
        <mxCell id="7mfvvXFp1FGG9PbwMvhJ-69" style="edgeStyle=none;rounded=0;orthogonalLoop=1;jettySize=auto;html=1;exitX=1;exitY=0.5;exitDx=0;exitDy=0;entryX=0;entryY=0.5;entryDx=0;entryDy=0;dashed=1;sketch=0;strokeWidth=0.5;endArrow=none;endFill=0;" edge="1" parent="7mfvvXFp1FGG9PbwMvhJ-53" source="7mfvvXFp1FGG9PbwMvhJ-63" target="7mfvvXFp1FGG9PbwMvhJ-54">
          <mxGeometry relative="1" as="geometry">
            <mxPoint x="97.93632551299794" y="44.07553010633276" as="targetPoint" />
          </mxGeometry>
        </mxCell>
        <mxCell id="7mfvvXFp1FGG9PbwMvhJ-70" style="edgeStyle=none;rounded=0;orthogonalLoop=1;jettySize=auto;html=1;exitX=1;exitY=0.5;exitDx=0;exitDy=0;entryX=0;entryY=0.5;entryDx=0;entryDy=0;dashed=1;sketch=0;strokeWidth=0.5;endArrow=none;endFill=0;" edge="1" parent="7mfvvXFp1FGG9PbwMvhJ-53" source="7mfvvXFp1FGG9PbwMvhJ-60" target="7mfvvXFp1FGG9PbwMvhJ-54">
          <mxGeometry relative="1" as="geometry">
            <mxPoint x="97.93632551299794" y="82.51179347720839" as="targetPoint" />
          </mxGeometry>
        </mxCell>
        <mxCell id="7mfvvXFp1FGG9PbwMvhJ-71" value="" style="ellipse;whiteSpace=wrap;html=1;aspect=fixed;fillColor=#4472C4;strokeColor=#6c8ebf;rounded=0;sketch=0;strokeWidth=0.5;container=0;" vertex="1" parent="7mfvvXFp1FGG9PbwMvhJ-53">
          <mxGeometry x="94.42086394234846" y="17.945234091886743" width="16.810546885076754" height="16.810546885076754" as="geometry" />
        </mxCell>
        <mxCell id="7mfvvXFp1FGG9PbwMvhJ-72" style="edgeStyle=none;rounded=0;orthogonalLoop=1;jettySize=auto;html=1;exitX=1;exitY=0.5;exitDx=0;exitDy=0;entryX=0;entryY=0.5;entryDx=0;entryDy=0;dashed=1;sketch=0;strokeWidth=0.5;endArrow=none;endFill=0;" edge="1" parent="7mfvvXFp1FGG9PbwMvhJ-53" source="7mfvvXFp1FGG9PbwMvhJ-57" target="7mfvvXFp1FGG9PbwMvhJ-71">
          <mxGeometry relative="1" as="geometry">
            <mxPoint x="111.44758689784754" y="76.98536500895109" as="targetPoint" />
            <mxPoint x="76.57160551979462" y="16.99682896943114" as="sourcePoint" />
          </mxGeometry>
        </mxCell>
        <mxCell id="7mfvvXFp1FGG9PbwMvhJ-73" value="&lt;font style=&quot;font-size: 24px;&quot;&gt;.......&lt;/font&gt;" style="text;html=1;align=center;verticalAlign=middle;resizable=0;points=[];autosize=1;strokeColor=none;fillColor=none;fontSize=18;" vertex="1" parent="7mfvvXFp1FGG9PbwMvhJ-2">
          <mxGeometry x="421" y="133.76999999999998" width="70" height="40" as="geometry" />
        </mxCell>
        <mxCell id="7mfvvXFp1FGG9PbwMvhJ-74" value="" style="shape=flexArrow;endArrow=classic;html=1;rounded=0;fontSize=18;fillColor=none;strokeColor=#4472C4;strokeWidth=2;endWidth=11.428571428571429;endSize=2.0428571428571427;width=6;" edge="1" parent="7mfvvXFp1FGG9PbwMvhJ-2">
          <mxGeometry width="50" height="50" relative="1" as="geometry">
            <mxPoint x="176" y="366.77" as="sourcePoint" />
            <mxPoint x="176" y="286.77" as="targetPoint" />
          </mxGeometry>
        </mxCell>
        <mxCell id="7mfvvXFp1FGG9PbwMvhJ-75" value="" style="shape=image;verticalLabelPosition=bottom;labelBackgroundColor=default;verticalAlign=top;aspect=fixed;imageAspect=0;image=data:image/png,iVBORw0KGgoAAAANSUhEUgAAAMgAAADICAYAAACtWK6eAAAAAXNSR0IArs4c6QAAAERlWElmTU0AKgAAAAgAAYdpAAQAAAABAAAAGgAAAAAAA6ABAAMAAAABAAEAAKACAAQAAAABAAAAyKADAAQAAAABAAAAyAAAAACbWz2VAAAIOUlEQVR4Ae3dT2skRRjH8are9c3oG9BksmQxr2GSgwcvHryIRi9ezOQmuJkEvHjw4sHLsiAiIm4mMUtWXERExD+IiIiICCIiIqLLlFXGXrNhMn+rKvU89R2Qnsx0Vz39efrH9Oz0jMZwQwABBBBAAAEEEEAAAQQQQAABBBBAAAEEEEAAAQQQQAABBBBAAAEEEEAAAQQQQAABBBBAAAEEEEAAAQQQQAABBBBAAAEEEEAAAQQQQAABBBBAAAEEEEAAAQQQQAABBBBAAAEEEEAAAQQQQAABBBBAAAEEEEAAAQQQQAABBBBAAAEEEEAAAQQQQAABBBBAAAEEEEAAAQQQGCFgRzwW7aG1zeNetMGqGahxxgzP9GXUY9WATNzRQX+lN3GlOVe4POd2U25mt6ZckdXuCfh8mDP5MKMeu7cBd4zppUJoUg3MuAhoECAgGrrIPiQTICDJaBlYgwAB0dBF9iGZAAFJRsvAGgQIiIYusg/JBAhIMloG1iBAQDR0kX1IJkBAktEysAYBAqKhi+xDMgECkoyWgTUIJL4Wa1Yit53ywrNZq2H9/AInF7iWcw0fryD5jwFmFCRAQAQ1i1LzCxCQ/ObMKEiAgAhqFqXmFyAg+c2ZUZAAARHULErNL0BA8pszoyABAiKoWZSaX4CA5DdnRkECBERQsyg1vwAByW/OjIIECIigZlFqfgECkt+cGQUJEBBBzaLU/AIEJL85MwoSICCCmkWp+QUISH5zZhQkUNg3CuPLrT19vBp/VEZsBQZ7K0ftfY1L9QEx1n9905pVjc278H1y5sjXEP5Te+MUS21r2bEYAgQkhiJjqBUgIGpby47FECAgMRQZQ60AAVHbWnYshgABiaHIGGoFCIja1rJjMQQISAxFxlArQEDUtpYdiyFAQGIoMoZaAQKitrXsWAwB/ddiObdtnNmOgcUY9QmoD4j2q03rO2Tz7jGnWHm9mU2YAAER1jDKzStAQPJ6M5swAQIirGGUm1eAgOT1ZjZhAgREWMMoN68AAcnrzWzCBAiIsIZRbl4BApLXm9mECRAQYQ2j3LwCBCSvN7MJEyAgwhpGuXkFCEheb2YTJkBAhDWMcvMKVB2QR5+982BebmaTJqD++yDnNSSEo3F3r69tHt8Y9Fd6562X6vG1zdsu1djZxh26q9q/b1PlK0gbDn+EPmSM3fIh6WU7qJhIlEB1Abk/HG2vCEkrwfJ+gaoCMjocLQghaSVY/i9QTUDGh6MFISStBMsTgSoCMl042kOCkLQSLI1RH5DZwtEeEoSklah9qTog84WjPSQISStR81JtQBYLR3tIEJJWotal2oAc7Dz8xdBe7lpjPl+suYRkMT/ZW6sNSGgLIZF9cJZQveqAEJISDjHZNVRxLVZ4JfHvSbrh2quTy0vmbdq/p1smzrVbtmfM0J8BTnNrfNlh3XZ53jaTnj9vOx4/T6CKgISdLy0kg/4yvzh/3lFZ0OPqT7FOW/Oe5LQG96cRqCogAYSQTHNYsE4rUF1Awo4Tkrb9LCcJVBmQgEJIJh0aPB8Eqg1I2HlCEhS4jROoOiABhpCMOzx4rvqAEBJCME6AgPynY93f3cU+RAwDuS+bprkxDpznZAlU80HhuLac/GiD3Rq3zsTnrPnKWbdx89ryZxPXZQUxAtUHJEo4nPvaDpuNwd6VT8V0nkKnEqg6IFHCYcw3Q+c2DveWP5lKnJVECVT7HiRSOL61zvhwXPlYVNcpdmqBKl9BIoXju6EbbhzuXvloam1WFCdQ3StIpHB87zsdwvGhuI5T8EwCVQUkUjh+cI1dH/Q7d2aSZmWRAtWcYkUKx4/20qX1wUuPfLBot9eeuf3eomNc+PbObWv/8eoqAhInHPYn51wIx/tRDkxrVqOMc5GDOKP+S1/qT7HihMP9bJ1dP9jtHF/k8cjc+QVUv4LECYf5xRnbHewu3crfHma8aAHVryDW2AX3z/1qTdM96Hfkv1+46CNN6PwLHkBl7/V+v/OCcebFOav8zVnb3e8vHcy5PZspEFAdkNCfwW7neX+g78zYq9/9i0/3YKezP+N2rK5MQH1AQr8Odpaf84uXp+zdH/4XqLqDnaV3p1yf1RQLVBGQ0D//wd5T/nTrlQm9/NM0tnu403lnwno8XYlANQEJ/fSnW0/6L0W9Orq39q/Gue7g2vLbo5/n0RoFqgpIaLD/F6kn/BW4r51p9l3/6tK9ubvy1pnH+bNygeoCEvq9v9t53C9eD/f9PwUPrWv85xzLb4a/uSFwWkD1B4Wnd/Tsff+e5DF/PdQDzprr/kPAN84+n/xvZ46Sz8EECwtUG5Ag59+TrC8sOOcAfu6rc27KZhkFqjzFyujLVMIFCIjwBlJ+WgECktaX0YULEBDhDaT8tAIEJK0vowsXICDCG0j5aQUISFpfRhcuQECEN5Dy0woQkLS+jC5cgIAIbyDlpxUgIGl9GV24AAER3kDKTytAQNL6MrpwAQIivIGUn1aAgKT1ZXThAgREeAMpP60AAUnry+jCBYr7RuHJ7+kKV6V8NQKFBWTB/xWzmrawI6UIcIpVSieoo0gBAlJkWyiqFAECUkonqKNIAQJSZFsoqhQBAlJKJ6ijSAECUmRbKKoUAQJSSieoo0gBAlJkWyiqFAECUkonqKNIAQJSZFsoqhQBAlJKJ6gDAQQQQAABBBBAAAEEEEAAAQQQQAABBBBAAAEEEEAAAQQQQAABBBBAAAEEEEAAAQQQQAABBBBAAAEEEEAAAQQQQAABBBBAAAEEEEAAAQQQQAABBBBAAAEEEEAAAQQQQAABBBBAAAEEEEAgl8A/6aaFQj1zb7YAAAAASUVORK5CYII=;" vertex="1" parent="7mfvvXFp1FGG9PbwMvhJ-2">
          <mxGeometry x="96" y="360" width="120" height="120" as="geometry" />
        </mxCell>
        <mxCell id="7mfvvXFp1FGG9PbwMvhJ-76" value="" style="shape=flexArrow;endArrow=classic;html=1;rounded=0;fontSize=18;fillColor=none;strokeColor=#4472C4;strokeWidth=2;endWidth=11.428571428571429;endSize=2.0428571428571427;width=6;" edge="1" parent="7mfvvXFp1FGG9PbwMvhJ-2">
          <mxGeometry width="50" height="50" relative="1" as="geometry">
            <mxPoint x="136" y="286.7700000000002" as="sourcePoint" />
            <mxPoint x="136" y="366.76999999999975" as="targetPoint" />
          </mxGeometry>
        </mxCell>
        <mxCell id="7mfvvXFp1FGG9PbwMvhJ-77" value="Transaction" style="text;html=1;align=center;verticalAlign=middle;resizable=0;points=[];autosize=1;strokeColor=none;fillColor=none;fontSize=18;" vertex="1" parent="7mfvvXFp1FGG9PbwMvhJ-2">
          <mxGeometry x="186" y="310" width="120" height="40" as="geometry" />
        </mxCell>
        <mxCell id="7mfvvXFp1FGG9PbwMvhJ-78" value="" style="shape=flexArrow;endArrow=classic;html=1;rounded=0;fontSize=18;fillColor=none;strokeColor=#4472C4;strokeWidth=2;endWidth=11.428571428571429;endSize=2.0428571428571427;width=6;" edge="1" parent="7mfvvXFp1FGG9PbwMvhJ-2">
          <mxGeometry width="50" height="50" relative="1" as="geometry">
            <mxPoint x="174.5" y="600" as="sourcePoint" />
            <mxPoint x="174.5" y="520" as="targetPoint" />
          </mxGeometry>
        </mxCell>
        <mxCell id="7mfvvXFp1FGG9PbwMvhJ-79" value="" style="group" vertex="1" connectable="0" parent="7mfvvXFp1FGG9PbwMvhJ-2">
          <mxGeometry x="24.5" y="630" width="260" height="180" as="geometry" />
        </mxCell>
        <mxCell id="7mfvvXFp1FGG9PbwMvhJ-80" value="" style="ellipse;whiteSpace=wrap;html=1;strokeColor=#4472C4;strokeWidth=2;fontSize=24;fillColor=none;dashed=1;" vertex="1" parent="7mfvvXFp1FGG9PbwMvhJ-79">
          <mxGeometry width="260" height="180" as="geometry" />
        </mxCell>
        <mxCell id="7mfvvXFp1FGG9PbwMvhJ-81" value="" style="group" vertex="1" connectable="0" parent="7mfvvXFp1FGG9PbwMvhJ-79">
          <mxGeometry x="50" y="49.84" width="100" height="80.33" as="geometry" />
        </mxCell>
        <mxCell id="7mfvvXFp1FGG9PbwMvhJ-82" value="" style="ellipse;whiteSpace=wrap;html=1;aspect=fixed;fillColor=#4472C4;strokeColor=#6c8ebf;rounded=0;sketch=0;strokeWidth=0.5;container=0;" vertex="1" parent="7mfvvXFp1FGG9PbwMvhJ-81">
          <mxGeometry x="83.90728156255973" y="47.55255535556513" width="13.568663743067209" height="13.568663743067209" as="geometry" />
        </mxCell>
        <mxCell id="7mfvvXFp1FGG9PbwMvhJ-83" value="" style="ellipse;whiteSpace=wrap;html=1;aspect=fixed;fillColor=#4472C4;strokeColor=#6C8EBF;rounded=0;sketch=0;strokeWidth=0.5;container=0;" vertex="1" parent="7mfvvXFp1FGG9PbwMvhJ-81">
          <mxGeometry y="47.55255535556513" width="12.857880820327622" height="12.857880820327622" as="geometry" />
        </mxCell>
        <mxCell id="7mfvvXFp1FGG9PbwMvhJ-84" value="" style="ellipse;whiteSpace=wrap;html=1;aspect=fixed;fillColor=#4472C4;strokeColor=#6c8ebf;rounded=0;sketch=0;strokeWidth=0.5;container=0;gradientColor=none;" vertex="1" parent="7mfvvXFp1FGG9PbwMvhJ-81">
          <mxGeometry x="-1.0807735686662385" y="16.469100561073137" width="12.857880820327622" height="12.857880820327622" as="geometry" />
        </mxCell>
        <mxCell id="7mfvvXFp1FGG9PbwMvhJ-85" value="" style="ellipse;whiteSpace=wrap;html=1;aspect=fixed;dashed=1;fillColor=#dae8fc;strokeColor=#6c8ebf;rounded=0;sketch=0;strokeWidth=0.5;container=0;" vertex="1" parent="7mfvvXFp1FGG9PbwMvhJ-81">
          <mxGeometry x="40.90727957401722" width="12.857880820327622" height="12.857880820327622" as="geometry" />
        </mxCell>
        <mxCell id="7mfvvXFp1FGG9PbwMvhJ-86" style="edgeStyle=none;rounded=0;orthogonalLoop=1;jettySize=auto;html=1;exitX=1;exitY=0.5;exitDx=0;exitDy=0;dashed=1;sketch=0;entryX=0;entryY=0.5;entryDx=0;entryDy=0;strokeWidth=0.5;endArrow=none;endFill=0;" edge="1" parent="7mfvvXFp1FGG9PbwMvhJ-81" source="7mfvvXFp1FGG9PbwMvhJ-83" target="7mfvvXFp1FGG9PbwMvhJ-85">
          <mxGeometry relative="1" as="geometry">
            <mxPoint x="41.99010422286121" y="16.721615557580847" as="targetPoint" />
          </mxGeometry>
        </mxCell>
        <mxCell id="7mfvvXFp1FGG9PbwMvhJ-87" style="edgeStyle=none;rounded=0;orthogonalLoop=1;jettySize=auto;html=1;exitX=1;exitY=0.5;exitDx=0;exitDy=0;entryX=0;entryY=0.5;entryDx=0;entryDy=0;dashed=1;sketch=0;strokeWidth=0.5;endArrow=none;endFill=0;" edge="1" parent="7mfvvXFp1FGG9PbwMvhJ-81" source="7mfvvXFp1FGG9PbwMvhJ-84" target="7mfvvXFp1FGG9PbwMvhJ-85">
          <mxGeometry relative="1" as="geometry" />
        </mxCell>
        <mxCell id="7mfvvXFp1FGG9PbwMvhJ-88" value="" style="ellipse;whiteSpace=wrap;html=1;aspect=fixed;dashed=1;fillColor=#dae8fc;strokeColor=#6c8ebf;rounded=0;sketch=0;strokeWidth=0.5;container=0;" vertex="1" parent="7mfvvXFp1FGG9PbwMvhJ-81">
          <mxGeometry x="41.145049759123815" y="33.35254353153612" width="12.493376757384247" height="12.493376757384247" as="geometry" />
        </mxCell>
        <mxCell id="7mfvvXFp1FGG9PbwMvhJ-89" style="edgeStyle=none;rounded=0;orthogonalLoop=1;jettySize=auto;html=1;exitX=1;exitY=0.5;exitDx=0;exitDy=0;entryX=0;entryY=0.5;entryDx=0;entryDy=0;dashed=1;sketch=0;strokeWidth=0.5;endArrow=none;endFill=0;" edge="1" parent="7mfvvXFp1FGG9PbwMvhJ-81" source="7mfvvXFp1FGG9PbwMvhJ-83" target="7mfvvXFp1FGG9PbwMvhJ-88">
          <mxGeometry relative="1" as="geometry" />
        </mxCell>
        <mxCell id="7mfvvXFp1FGG9PbwMvhJ-90" style="edgeStyle=none;rounded=0;orthogonalLoop=1;jettySize=auto;html=1;exitX=1;exitY=0.5;exitDx=0;exitDy=0;entryX=0;entryY=0.5;entryDx=0;entryDy=0;dashed=1;sketch=0;strokeWidth=0.5;endArrow=none;endFill=0;" edge="1" parent="7mfvvXFp1FGG9PbwMvhJ-81" source="7mfvvXFp1FGG9PbwMvhJ-84" target="7mfvvXFp1FGG9PbwMvhJ-88">
          <mxGeometry relative="1" as="geometry" />
        </mxCell>
        <mxCell id="7mfvvXFp1FGG9PbwMvhJ-91" value="" style="ellipse;whiteSpace=wrap;html=1;aspect=fixed;fillColor=#dae8fc;strokeColor=#6c8ebf;rounded=0;sketch=0;strokeWidth=0.5;container=0;" vertex="1" parent="7mfvvXFp1FGG9PbwMvhJ-81">
          <mxGeometry x="40.06427619045758" y="64.90224687217852" width="13.568663743067209" height="13.568663743067209" as="geometry" />
        </mxCell>
        <mxCell id="7mfvvXFp1FGG9PbwMvhJ-92" style="edgeStyle=none;rounded=0;orthogonalLoop=1;jettySize=auto;html=1;exitX=1;exitY=0.5;exitDx=0;exitDy=0;sketch=0;entryX=0;entryY=0.5;entryDx=0;entryDy=0;strokeWidth=0.5;endArrow=none;endFill=0;" edge="1" parent="7mfvvXFp1FGG9PbwMvhJ-81" source="7mfvvXFp1FGG9PbwMvhJ-84" target="7mfvvXFp1FGG9PbwMvhJ-91">
          <mxGeometry relative="1" as="geometry">
            <mxPoint x="41.99010422286121" y="84.18317667500537" as="targetPoint" />
          </mxGeometry>
        </mxCell>
        <mxCell id="7mfvvXFp1FGG9PbwMvhJ-93" style="edgeStyle=none;rounded=0;orthogonalLoop=1;jettySize=auto;html=1;exitX=1;exitY=0.5;exitDx=0;exitDy=0;entryX=0;entryY=0.5;entryDx=0;entryDy=0;sketch=0;strokeWidth=0.5;endArrow=none;endFill=0;" edge="1" parent="7mfvvXFp1FGG9PbwMvhJ-81" source="7mfvvXFp1FGG9PbwMvhJ-83" target="7mfvvXFp1FGG9PbwMvhJ-91">
          <mxGeometry relative="1" as="geometry" />
        </mxCell>
        <mxCell id="7mfvvXFp1FGG9PbwMvhJ-94" style="edgeStyle=none;rounded=0;orthogonalLoop=1;jettySize=auto;html=1;exitX=1;exitY=0.5;exitDx=0;exitDy=0;entryX=0;entryY=0.5;entryDx=0;entryDy=0;dashed=1;sketch=0;strokeWidth=0.5;endArrow=none;endFill=0;" edge="1" parent="7mfvvXFp1FGG9PbwMvhJ-81" source="7mfvvXFp1FGG9PbwMvhJ-88" target="7mfvvXFp1FGG9PbwMvhJ-99">
          <mxGeometry relative="1" as="geometry">
            <mxPoint x="87.03130321958406" y="5.641646459434993" as="targetPoint" />
          </mxGeometry>
        </mxCell>
        <mxCell id="7mfvvXFp1FGG9PbwMvhJ-95" style="edgeStyle=none;rounded=0;orthogonalLoop=1;jettySize=auto;html=1;exitX=1;exitY=0.5;exitDx=0;exitDy=0;dashed=1;sketch=0;entryX=0;entryY=0.5;entryDx=0;entryDy=0;strokeWidth=0.5;endArrow=none;endFill=0;" edge="1" parent="7mfvvXFp1FGG9PbwMvhJ-81" source="7mfvvXFp1FGG9PbwMvhJ-91" target="7mfvvXFp1FGG9PbwMvhJ-99">
          <mxGeometry relative="1" as="geometry">
            <mxPoint x="87.03130321958406" y="5.641646459434993" as="targetPoint" />
          </mxGeometry>
        </mxCell>
        <mxCell id="7mfvvXFp1FGG9PbwMvhJ-96" style="edgeStyle=none;rounded=0;orthogonalLoop=1;jettySize=auto;html=1;exitX=1;exitY=0.5;exitDx=0;exitDy=0;entryX=0;entryY=0.5;entryDx=0;entryDy=0;dashed=1;sketch=0;strokeWidth=0.5;endArrow=none;endFill=0;" edge="1" parent="7mfvvXFp1FGG9PbwMvhJ-81" source="7mfvvXFp1FGG9PbwMvhJ-85" target="7mfvvXFp1FGG9PbwMvhJ-82">
          <mxGeometry relative="1" as="geometry">
            <mxPoint x="87.03130321958406" y="40.449986672474694" as="targetPoint" />
          </mxGeometry>
        </mxCell>
        <mxCell id="7mfvvXFp1FGG9PbwMvhJ-97" style="edgeStyle=none;rounded=0;orthogonalLoop=1;jettySize=auto;html=1;exitX=1;exitY=0.5;exitDx=0;exitDy=0;entryX=0;entryY=0.5;entryDx=0;entryDy=0;dashed=1;sketch=0;strokeWidth=0.5;endArrow=none;endFill=0;" edge="1" parent="7mfvvXFp1FGG9PbwMvhJ-81" source="7mfvvXFp1FGG9PbwMvhJ-91" target="7mfvvXFp1FGG9PbwMvhJ-82">
          <mxGeometry relative="1" as="geometry">
            <mxPoint x="87.03130321958406" y="40.449986672474694" as="targetPoint" />
          </mxGeometry>
        </mxCell>
        <mxCell id="7mfvvXFp1FGG9PbwMvhJ-98" style="edgeStyle=none;rounded=0;orthogonalLoop=1;jettySize=auto;html=1;exitX=1;exitY=0.5;exitDx=0;exitDy=0;entryX=0;entryY=0.5;entryDx=0;entryDy=0;dashed=1;sketch=0;strokeWidth=0.5;endArrow=none;endFill=0;" edge="1" parent="7mfvvXFp1FGG9PbwMvhJ-81" source="7mfvvXFp1FGG9PbwMvhJ-88" target="7mfvvXFp1FGG9PbwMvhJ-82">
          <mxGeometry relative="1" as="geometry">
            <mxPoint x="87.03130321958406" y="75.72457865902146" as="targetPoint" />
          </mxGeometry>
        </mxCell>
        <mxCell id="7mfvvXFp1FGG9PbwMvhJ-99" value="" style="ellipse;whiteSpace=wrap;html=1;aspect=fixed;fillColor=#4472C4;strokeColor=#6c8ebf;rounded=0;sketch=0;strokeWidth=0.5;container=0;" vertex="1" parent="7mfvvXFp1FGG9PbwMvhJ-81">
          <mxGeometry x="83.90728156255973" y="16.469103788429816" width="13.568663743067209" height="13.568663743067209" as="geometry" />
        </mxCell>
        <mxCell id="7mfvvXFp1FGG9PbwMvhJ-100" style="edgeStyle=none;rounded=0;orthogonalLoop=1;jettySize=auto;html=1;exitX=1;exitY=0.5;exitDx=0;exitDy=0;entryX=0;entryY=0.5;entryDx=0;entryDy=0;dashed=1;sketch=0;strokeWidth=0.5;endArrow=none;endFill=0;" edge="1" parent="7mfvvXFp1FGG9PbwMvhJ-81" source="7mfvvXFp1FGG9PbwMvhJ-85" target="7mfvvXFp1FGG9PbwMvhJ-99">
          <mxGeometry relative="1" as="geometry">
            <mxPoint x="99.03811152390256" y="70.65274044520781" as="targetPoint" />
            <mxPoint x="68.04550388322636" y="15.598712111440685" as="sourcePoint" />
          </mxGeometry>
        </mxCell>
        <mxCell id="7mfvvXFp1FGG9PbwMvhJ-101" value="x N" style="text;html=1;align=center;verticalAlign=middle;resizable=0;points=[];autosize=1;strokeColor=none;fillColor=none;fontSize=18;" vertex="1" parent="7mfvvXFp1FGG9PbwMvhJ-79">
          <mxGeometry x="150" y="69.99999999999989" width="50" height="40" as="geometry" />
        </mxCell>
        <mxCell id="7mfvvXFp1FGG9PbwMvhJ-102" value="Smart Contract" style="text;html=1;align=center;verticalAlign=middle;resizable=0;points=[];autosize=1;strokeColor=none;fillColor=none;fontSize=18;" vertex="1" parent="7mfvvXFp1FGG9PbwMvhJ-2">
          <mxGeometry x="84.5" y="470" width="140" height="40" as="geometry" />
        </mxCell>
        <mxCell id="7mfvvXFp1FGG9PbwMvhJ-103" value="" style="shape=flexArrow;endArrow=classic;html=1;rounded=0;fontSize=18;fillColor=none;strokeColor=#4472C4;strokeWidth=2;endWidth=11.428571428571429;endSize=2.0428571428571427;width=6;" edge="1" parent="7mfvvXFp1FGG9PbwMvhJ-2">
          <mxGeometry width="50" height="50" relative="1" as="geometry">
            <mxPoint x="136" y="520.0000000000002" as="sourcePoint" />
            <mxPoint x="136" y="600" as="targetPoint" />
          </mxGeometry>
        </mxCell>
        <mxCell id="7mfvvXFp1FGG9PbwMvhJ-104" value="User Group" style="text;html=1;align=center;verticalAlign=middle;resizable=0;points=[];autosize=1;strokeColor=none;fillColor=none;fontSize=18;" vertex="1" parent="7mfvvXFp1FGG9PbwMvhJ-2">
          <mxGeometry x="96" y="820" width="120" height="40" as="geometry" />
        </mxCell>
        <mxCell id="7mfvvXFp1FGG9PbwMvhJ-105" value="" style="shape=image;verticalLabelPosition=bottom;labelBackgroundColor=default;verticalAlign=top;aspect=fixed;imageAspect=0;image=data:image/png,iVBORw0KGgoAAAANSUhEUgAAAMgAAADICAYAAACtWK6eAAAAAXNSR0IArs4c6QAAAERlWElmTU0AKgAAAAgAAYdpAAQAAAABAAAAGgAAAAAAA6ABAAMAAAABAAEAAKACAAQAAAABAAAAyKADAAQAAAABAAAAyAAAAACbWz2VAAAIOUlEQVR4Ae3dT2skRRjH8are9c3oG9BksmQxr2GSgwcvHryIRi9ezOQmuJkEvHjw4sHLsiAiIm4mMUtWXERExD+IiIiICCIiIqLLlFXGXrNhMn+rKvU89R2Qnsx0Vz39efrH9Oz0jMZwQwABBBBAAAEEEEAAAQQQQAABBBBAAAEEEEAAAQQQQAABBBBAAAEEEEAAAQQQQAABBBBAAAEEEEAAAQQQQAABBBBAAAEEEEAAAQQQQAABBBBAAAEEEEAAAQQQQAABBBBAAAEEEEAAAQQQQAABBBBAAAEEEEAAAQQQQAABBBBAAAEEEEAAAQQQQAABBBBAAAEEEEAAAQQQGCFgRzwW7aG1zeNetMGqGahxxgzP9GXUY9WATNzRQX+lN3GlOVe4POd2U25mt6ZckdXuCfh8mDP5MKMeu7cBd4zppUJoUg3MuAhoECAgGrrIPiQTICDJaBlYgwAB0dBF9iGZAAFJRsvAGgQIiIYusg/JBAhIMloG1iBAQDR0kX1IJkBAktEysAYBAqKhi+xDMgECkoyWgTUIJL4Wa1Yit53ywrNZq2H9/AInF7iWcw0fryD5jwFmFCRAQAQ1i1LzCxCQ/ObMKEiAgAhqFqXmFyAg+c2ZUZAAARHULErNL0BA8pszoyABAiKoWZSaX4CA5DdnRkECBERQsyg1vwAByW/OjIIECIigZlFqfgECkt+cGQUJEBBBzaLU/AIEJL85MwoSICCCmkWp+QUISH5zZhQkUNg3CuPLrT19vBp/VEZsBQZ7K0ftfY1L9QEx1n9905pVjc278H1y5sjXEP5Te+MUS21r2bEYAgQkhiJjqBUgIGpby47FECAgMRQZQ60AAVHbWnYshgABiaHIGGoFCIja1rJjMQQISAxFxlArQEDUtpYdiyFAQGIoMoZaAQKitrXsWAwB/ddiObdtnNmOgcUY9QmoD4j2q03rO2Tz7jGnWHm9mU2YAAER1jDKzStAQPJ6M5swAQIirGGUm1eAgOT1ZjZhAgREWMMoN68AAcnrzWzCBAiIsIZRbl4BApLXm9mECRAQYQ2j3LwCBCSvN7MJEyAgwhpGuXkFCEheb2YTJkBAhDWMcvMKVB2QR5+982BebmaTJqD++yDnNSSEo3F3r69tHt8Y9Fd6562X6vG1zdsu1djZxh26q9q/b1PlK0gbDn+EPmSM3fIh6WU7qJhIlEB1Abk/HG2vCEkrwfJ+gaoCMjocLQghaSVY/i9QTUDGh6MFISStBMsTgSoCMl042kOCkLQSLI1RH5DZwtEeEoSklah9qTog84WjPSQISStR81JtQBYLR3tIEJJWotal2oAc7Dz8xdBe7lpjPl+suYRkMT/ZW6sNSGgLIZF9cJZQveqAEJISDjHZNVRxLVZ4JfHvSbrh2quTy0vmbdq/p1smzrVbtmfM0J8BTnNrfNlh3XZ53jaTnj9vOx4/T6CKgISdLy0kg/4yvzh/3lFZ0OPqT7FOW/Oe5LQG96cRqCogAYSQTHNYsE4rUF1Awo4Tkrb9LCcJVBmQgEJIJh0aPB8Eqg1I2HlCEhS4jROoOiABhpCMOzx4rvqAEBJCME6AgPynY93f3cU+RAwDuS+bprkxDpznZAlU80HhuLac/GiD3Rq3zsTnrPnKWbdx89ryZxPXZQUxAtUHJEo4nPvaDpuNwd6VT8V0nkKnEqg6IFHCYcw3Q+c2DveWP5lKnJVECVT7HiRSOL61zvhwXPlYVNcpdmqBKl9BIoXju6EbbhzuXvloam1WFCdQ3StIpHB87zsdwvGhuI5T8EwCVQUkUjh+cI1dH/Q7d2aSZmWRAtWcYkUKx4/20qX1wUuPfLBot9eeuf3eomNc+PbObWv/8eoqAhInHPYn51wIx/tRDkxrVqOMc5GDOKP+S1/qT7HihMP9bJ1dP9jtHF/k8cjc+QVUv4LECYf5xRnbHewu3crfHma8aAHVryDW2AX3z/1qTdM96Hfkv1+46CNN6PwLHkBl7/V+v/OCcebFOav8zVnb3e8vHcy5PZspEFAdkNCfwW7neX+g78zYq9/9i0/3YKezP+N2rK5MQH1AQr8Odpaf84uXp+zdH/4XqLqDnaV3p1yf1RQLVBGQ0D//wd5T/nTrlQm9/NM0tnu403lnwno8XYlANQEJ/fSnW0/6L0W9Orq39q/Gue7g2vLbo5/n0RoFqgpIaLD/F6kn/BW4r51p9l3/6tK9ubvy1pnH+bNygeoCEvq9v9t53C9eD/f9PwUPrWv85xzLb4a/uSFwWkD1B4Wnd/Tsff+e5DF/PdQDzprr/kPAN84+n/xvZ46Sz8EECwtUG5Ag59+TrC8sOOcAfu6rc27KZhkFqjzFyujLVMIFCIjwBlJ+WgECktaX0YULEBDhDaT8tAIEJK0vowsXICDCG0j5aQUISFpfRhcuQECEN5Dy0woQkLS+jC5cgIAIbyDlpxUgIGl9GV24AAER3kDKTytAQNL6MrpwAQIivIGUn1aAgKT1ZXThAgREeAMpP60AAUnry+jCBYr7RuHJ7+kKV6V8NQKFBWTB/xWzmrawI6UIcIpVSieoo0gBAlJkWyiqFAECUkonqKNIAQJSZFsoqhQBAlJKJ6ijSAECUmRbKKoUAQJSSieoo0gBAlJkWyiqFAECUkonqKNIAQJSZFsoqhQBAlJKJ6gDAQQQQAABBBBAAAEEEEAAAQQQQAABBBBAAAEEEEAAAQQQQAABBBBAAAEEEEAAAQQQQAABBBBAAAEEEEAAAQQQQAABBBBAAAEEEEAAAQQQQAABBBBAAAEEEEAAAQQQQAABBBBAAAEEEEAgl8A/6aaFQj1zb7YAAAAASUVORK5CYII=;" vertex="1" parent="7mfvvXFp1FGG9PbwMvhJ-2">
          <mxGeometry x="524.5" y="360" width="120" height="120" as="geometry" />
        </mxCell>
        <mxCell id="7mfvvXFp1FGG9PbwMvhJ-106" value="Smart Contract" style="text;html=1;align=center;verticalAlign=middle;resizable=0;points=[];autosize=1;strokeColor=none;fillColor=none;fontSize=18;" vertex="1" parent="7mfvvXFp1FGG9PbwMvhJ-2">
          <mxGeometry x="514.5" y="470" width="140" height="40" as="geometry" />
        </mxCell>
        <mxCell id="7mfvvXFp1FGG9PbwMvhJ-107" value="" style="shape=flexArrow;endArrow=classic;html=1;rounded=0;fontSize=18;fillColor=none;strokeColor=#4472C4;strokeWidth=2;endWidth=11.428571428571429;endSize=2.0428571428571427;width=6;" edge="1" parent="7mfvvXFp1FGG9PbwMvhJ-2">
          <mxGeometry width="50" height="50" relative="1" as="geometry">
            <mxPoint x="601" y="366.77" as="sourcePoint" />
            <mxPoint x="601" y="286.77" as="targetPoint" />
          </mxGeometry>
        </mxCell>
        <mxCell id="7mfvvXFp1FGG9PbwMvhJ-108" value="" style="shape=flexArrow;endArrow=classic;html=1;rounded=0;fontSize=18;fillColor=none;strokeColor=#4472C4;strokeWidth=2;endWidth=11.428571428571429;endSize=2.0428571428571427;width=6;" edge="1" parent="7mfvvXFp1FGG9PbwMvhJ-2">
          <mxGeometry width="50" height="50" relative="1" as="geometry">
            <mxPoint x="561" y="286.7700000000002" as="sourcePoint" />
            <mxPoint x="561" y="366.77" as="targetPoint" />
          </mxGeometry>
        </mxCell>
        <mxCell id="7mfvvXFp1FGG9PbwMvhJ-109" value="Transaction" style="text;html=1;align=center;verticalAlign=middle;resizable=0;points=[];autosize=1;strokeColor=none;fillColor=none;fontSize=18;" vertex="1" parent="7mfvvXFp1FGG9PbwMvhJ-2">
          <mxGeometry x="611" y="310" width="120" height="40" as="geometry" />
        </mxCell>
        <mxCell id="7mfvvXFp1FGG9PbwMvhJ-110" value="" style="shape=flexArrow;endArrow=classic;html=1;rounded=0;fontSize=18;fillColor=none;strokeColor=#4472C4;strokeWidth=2;endWidth=11.428571428571429;endSize=2.0428571428571427;width=6;" edge="1" parent="7mfvvXFp1FGG9PbwMvhJ-2">
          <mxGeometry width="50" height="50" relative="1" as="geometry">
            <mxPoint x="604.5" y="599.9999999999998" as="sourcePoint" />
            <mxPoint x="604.5" y="519.9999999999998" as="targetPoint" />
          </mxGeometry>
        </mxCell>
        <mxCell id="7mfvvXFp1FGG9PbwMvhJ-111" value="" style="group" vertex="1" connectable="0" parent="7mfvvXFp1FGG9PbwMvhJ-2">
          <mxGeometry x="454.5" y="630" width="280" height="230" as="geometry" />
        </mxCell>
        <mxCell id="7mfvvXFp1FGG9PbwMvhJ-112" value="" style="ellipse;whiteSpace=wrap;html=1;strokeColor=#4472C4;strokeWidth=2;fontSize=24;fillColor=none;dashed=1;" vertex="1" parent="7mfvvXFp1FGG9PbwMvhJ-111">
          <mxGeometry width="260" height="180" as="geometry" />
        </mxCell>
        <mxCell id="7mfvvXFp1FGG9PbwMvhJ-113" value="x N" style="text;html=1;align=center;verticalAlign=middle;resizable=0;points=[];autosize=1;strokeColor=none;fillColor=none;fontSize=18;" vertex="1" parent="7mfvvXFp1FGG9PbwMvhJ-111">
          <mxGeometry x="150" y="69.99999999999989" width="50" height="40" as="geometry" />
        </mxCell>
        <mxCell id="7mfvvXFp1FGG9PbwMvhJ-114" value="" style="shape=image;verticalLabelPosition=bottom;labelBackgroundColor=default;verticalAlign=top;aspect=fixed;imageAspect=0;image=data:image/png,iVBORw0KGgoAAAANSUhEUgAAAMgAAADICAYAAACtWK6eAAAAAXNSR0IArs4c6QAAAERlWElmTU0AKgAAAAgAAYdpAAQAAAABAAAAGgAAAAAAA6ABAAMAAAABAAEAAKACAAQAAAABAAAAyKADAAQAAAABAAAAyAAAAACbWz2VAAAwrElEQVR4Ae19CbwUxbX36XtRFoHLveCKyuK+C6KgoOIa17hEcXt8cdeogJhoTPR9wSSfL9Ho5/pMfK55LvG5xhiN+x7ccN8wogiICAhcEEXh3n7///Q90zU91XNn6Zk7PdPn95vp7uruqurT9e9T59SpUyIJJRxIOBDKASf0THIieg5Mcbv1bZW+zkppclaXvtKGrWDrSJO4+HHfo6VIa0VaqyuyVBqx/V6WuqtJ69ImHE9xVkVfuSRHGwcSgNi4ElFa01nukMZGGYFGvhuy5G/biLJ+B/m8wB/yf23h5c5HEeWbZBPgQAKQAENKOWya7I5ocGVHt11GOI6MRl6blZJfAffOwrUv4mVOa3dkWrfVZdrCS5xlBdyfXBrCgQQgIYwpNLl5kjsD9wzNdd+G/UV6dxdZrVGkx2rer3vHVo95/3crRVbwh45Uer8jbVWbyMfzc5WSOteGLtqExVc413V6ZXJBTg50y3k2OZkXB5omuqfiwixwDFlTZBBAsX6LtyUIoqJPF4rMXCDy2VciM7IB0wj95TyUlQCkRIYnACmRgbzdaZCP0CDTdPGPRJp6iSxank6KfGfIABH+lChx3vhM5OG3NUU+T+8lO0VzoKHoO5MbQzkwFppHU8/Q02U5scW6IgdkmgAAmYRK5UACkFI5mNxf0xxIAFLTrzd5uFI5kACkVA4m99c0BxKA1PTrTR6uVA4kACmRgw++5241aqhMKDGbyG9vWUNGnXmXO1EzxjjNQf0mulNaJrn7aFqy7ZwDiZm3cx6lruh3tjsYo+STYM09mwmD+8tN146XYXe8IpthtBVG3eoijOT3aF0uV578Z/e3fXvJvTc/L5twdJ/WaIDlGqdRLll0uTO7umpdfbVJJEgn72Tw8W4PNKjzHVemKjh4y15byonNvWQYGFh14DAfqaFR+sxfKscjbbSRfpbbJi/iuc4y0pJdCwcSgFiYokmQGse3NslUHP8Hfuto+mbYO3KEHsVju9NQuAr3yKjrBji6ut8k97Gk25XBl4yDpIuVwQ7voPlsdzRGxi/Ebz/z9Hr9RI4AMAiORnxaZsDVY1W7eUX17a8DB/qvvvbq1X8TuKfQRQW/bzuGEdE93AeScR8A5bIlzXBPmeJU+RNVlscJQAL8BjjOBDAuQXK669QHX14FRj+kfgUXEoJj2YrAzVV4SP+vLdYTQTdLZsFva+haIgObfaAowAGUn7Yslu3bJro/b73KmVaFj9IlVUoA0sH2vpPdloZ2AMOVk8w3ocDYAA6Hbfi2fjRfZPYi84p47K8FSUJwz1nsgWUzuKYoUOjwSIIk2avBEXa5zlt0pXOjl1rf/wlA8P7hjbtXY7v8Hg1kB20ObDzn7Cuy80ZeygJ0U+hBGwepoc8Q3K6Otz0UHsYEioJ86/VFWnqLfDg33e1qAR9uaJ7oDuu5Qs6be73zTTCfejqueyUdX8uf8qtpgmOnISKXjfPBMa9V5O058QaH2agxRiKbwtCwBuamkKhbjcSHYB1O+lVy5Mxve8pjMFRsr0n1uK1rgHDgDMD4A158mg+HDQc4jhLh5CbS3CUi733h7dfSf0/oJlsNFKF+RSJYdhiMKZBpW10qeTRU9gcAkrGpozr8SzeMent2ggMDZ78yn/vMPUXOhd2KFirSbPTXP5jn7dfiPyRnCiSma/7Ga4vQJNy7AziYmTgIl9UtSOoSIOhW/cYEBy09Fx8uctwoHwbTv4RCjl89EK1c/aGHKK3ZR2TYhjDjrd6RgogrGCh9uh4lSd0BBPb+G9CtulAbA/vjVx8rMnZzTcHMvNmetcdPqf29TSA51odhQqkvJnyNgC7W3TDj1CNI6gogcK14GN2FtBmXDeLGE7xuhjaM12eVd6qsllONW86dN0FC/WQ0BhcZZEKJIOk/2d1Jj2t9WzcAAThuxcvcX1/opvhi/uV0kbUxPqD0FixVi+vaqOkFmDBB0hPdrD22gBUDXxal9nZ5Waa42gHT5Jrc1gVA0Hc+G2/v/+gb3B7961sgR8yX/h7GARZ2uGTodflst0T/fUtYg0z6BOMlXUFfwBytRL+rURvB/wpdpUKJkoSmXyVKkP220SNv27xEnshMqc0jQ3jW5gNSsUS34E59Olqo7j1Dj7wtlfG5RuPKPNv5Ebx6UwOINAnvia9tP+g1SyosiVheO5SrL5d6MbWO2dlQsjt/hKwrGJXle8TgWv6ddwpGjVT4IvpxddCgHqOmtK14+aLnNKEWt4bgrL3Ha/652yQr5G08GWSGR1ccAzPmED0S4deeI+QJ2TkwfR66nUb4IgLwtU8zrh2/+ErntoyUGjqo7S7Wd3Ir3lUaHBwENMHBuFUJOHK3ZuojOi7EK6mz0Y/LoP9unuDuahzX1G7NAoQDgfC+O0TfFu36HARUouMhPXITys0BjrDTL82kjdcKpDXIlWue4fY2r6mV/ZoESPNkdxv0mX+qL4nOeRP31iNvS3AsjYG7ematu+aICjt5aBIHFw0DwLBV3eSX5vla2a9JgEApJzjSXzS6kJg+RuxH040kofw5QClCRV2JA4gbQZKkyZFf1GJXq+YAgpHyH7qu/Fhf3A+2FjlwWz3yLDxdZYb1axG/PQ4aBrtalCwZaQ3yi/g9We4a1xxA8JFLd63oX3TimEwGzMTkoG++z0xLjvLjABV2Lt9gEqVIN3+wYH+Y1SeY5+O+X1MAgWI+CS9kN30pBAdnAiq1fivyOcYqEiqeA2s3Zd5LyWJ2teAe/0vMztw486r4HtUMQGBFWcdUzPfYXIRmXZPmJOAw2VHUPj19dQ6JZkCANGNwNEWOrIPZmZP1XNy3NQOQVavJ8XgZG/CF8AWeEOha0ceKMwMTKp0DQSlC3d2UIjgcxw9W6SV1fQ41ARAGdwMr04r5j3YQoa3eJAYrSCgaDgyAbmdOsmKuHEDk3PYOGrByNRmnB3He1gRAWvumpAc6Vd66f/sHHOsYpmf+sji/puqre1CKsIamRQtSJQFI1bw2x5ceXGXJVMxZx0R6RP+mONEsOHi4Psy+GggCJY7GzM0fRF9yZXOMvQRBeJqjwbL0ZNkDAtKDJt1i3Ngr+xriWRpBYlIDWpMpReBdHHspEnuAIKhAWvfYZ0vMzYALhEnsXiVUHg7QctUt0IIIEE2DVXFcv5+6g8pTemVyDTxeZQqNqhTMEuQY+X6aX2ARy1SyxqXVa5JtdBzgRKq0ebcjWwZ6MKRIb6dNDoiuxMrnFGuAgF3pQUGaGUcOzWQgu1eJBMnkSdRHwW4W8++PsRIlt1321P04bmsGINulRkAyX0ECjkx+lOOIEoTz1k3qjzR1bMR2D8xfj207i23FO8Y+DtIXYwVIEXPMNb9kmz8HglKEMYCNrld/zF+PrTUrtgBZ2ifVvUqHJAgC5PtVSfcq/yZe2pVBcy9zM0GD6Qf7llZC190dW4C0N/jKOYOerWX0e8nOrzuCDXQda+unZI59mNNy+eT02VJysUCP7sdtG1uAwLx7oDJ7OKbTBikBSJAj5Ttm+KR0mNKOYihB1NyLpK1aznAtWmL56hRVzrEECBe7gdjeVJkwzGJpj/M6HvpccdoGAcK6m90s6SY7x+l5tK6xBMhq7bKRPgC35nRaTU/mmysnKrM1XEzSBQbStk6fiNFOLAECF4Y0QKggmuFDyXsq6Mmswcq2wvRyCUaxGQBxJAGIwZvy7jb4AOGSYkFalijoQZaU/ZhdrKCi3itzem4CkLK/hY4CoH+kJchGFoBwam1CledAhsRA8aZeAkvWJjLBzYRM5atYcImx7GKB2T5A4GISpFVtwZTkuBIcMKxWqeI4wm4GCG+KYTcrlgAB99NBAWwSZGUCkErgIasMI7pJ6hzBYUoVHMaumxVXgGDRNG9V1qE2CYKwoglVngNBCcIaZCjvDRi9ihnFEiCuI6fjZUzlOuZcrTVIiQQJcqQyx0ElnaUOxxjV0AGyCO9s4pIrnFsqU5PoSokdovXRb3/F3R7Mf0OPze3UTxIzr8mPSu0zpOunC7JLw/opM64+2kl3i7OvqN6UWEoQsrNvLy/Ej421iZJu40r502xdLJaKSPqB0Nflr0tUJcAxuboJoSzHo4azg7V87F3Zc2nalpV5litGwdKVUIU5wNWobDM4kd6bK33ZqtPQLj0WXeX8w3auGtKquouFKbVJO6+GVlLuOrjy1uKrnO3LXUwx+VdtFwtxdik5EqoDDkCBr9oojNXbxWpAt6pDfvSApWrdQNDkOmg3Nf2IK1aK6Kq86MZ8Xq0PW70AMThGcJyYDs9gnEh2Y8sBrg1503Pp6sP+VZ1UtV2s6mRXUqt640ACkHp748nzFsSBWHSxKI7//b6Cniu5OF4c2Lhaq1vNEqQqzX7V+iJjXq/e1Vr/qgUI/HauANM+rlbGJfWKjAPtsGIxAHlVUlUPFObi2MLl7s39e8nxwWuWYjR3brKSVJAtFTlejlCvL8EPzkZr9ZCh40Y6n9rOVXNa1UqQzpgGZGNNo2xKxt6zeVKplMYcn9vG1WVApeoRZTmxBQhcq9NRFU2GIKBDQl3EAZu7u1YFk6ewMEL8KLYAAau5LmEWJRIkiyUVSzCn1wYLhUevEWsxeLZ6j2MLELwMzHjOpkSCZPOkUim5JAgmecbS5T22AAEQrLFLcr2kSjWUei0HUiKUujkyL/RkFZ+ILUDgyGhdtzYBSNe1tlzSG+9lVtfVrPiS4wuQRllie2x8qRLqIg7kkiCffS4zu6haJRUbC1cT6xO6ssiWnkgQG1cqk9YWYkHkOznrACeW8S5jK0GgpM+3vfYEIDauVCatPUQHwWKfIdCpTL1KKSW2AOneKHNtD54AxMaVyqSFdbHwMYvtYnixBYjTLh/ZXjtVEC5PnFDlOfAtZgnaCNFOYuv8E1uArLaavGZ7GUxbPQFIGGvKmk5fLBvhgzXHlh6HtNgCxHGcdqwDYlX8usfX9BCHNhNax2+sbyMl0T8MvanKT8QWIOTrynb5zMbfRILYuFL+tDAJgqDWodK+/LUqrYR4A6RNPrA9PtfpTqiyHKCZKnRVr1XydGVrE11psQbIqnZ50cYKWLgSqjAHwrpXUNDdQ4c771e4OpEVF2uAfN8uD9o4QVNvYsmycaZ8aUusnnEwmHSTqg3pkw83Yg2QgX2d6d+12Z0W17D6+ubDkuSaYjiwMGSkA6tMvVlMftVyT6wBQiZ+t1LetjGzl2XdENt1SVrpHKD+sfgbez49G+VO+5l4pMYeIFgs534bqxmuNKHKcGAh/Kpto+jUP97cTv6rMrUoTymxB8g7C+RKKOtZRFNvMh6SxZayJIRJDyy/NnMKxqvKUmiFMo09QPYY4qyAi8NiG79sy7PZrkvSSuNAGEBgKHmytJy7/u7YA4QsxDz0h2ysTPQQG1eiTVsK69XXISPoAM6foi2t8rnVBECkXa62BWvog2XrE3NveRvVwuX2/Ht3l4Wnj3FiO4KuT1UTAGlaw3l1+cpsj1EHrr0ESULl48BXIQCBkeTR8pVauZxrAiBk18pV8hcb2xKA2LgSTRq7V/wFieF/lrfLb4LpcTyuGYB80yYX2NZHp6KeKOvlaZph3asmWK9O2tGZXp5SK5trzQBk/b7OV7BmWV9KIkXK06jCulerdbNL8/LUory51gxAyKZVrn1Qqi9iMCZTcaNtSASHrXsF3WPlvHkyJdrSui63mgJI/17OZZAiWfGyuMA9xH5CEXJgXsgk2j495NmJMY1gYmNPTQGED4jVU62+PwlAbK+/uLSlK0TmWXx04bngdmuT04rLtTrvqjmAtKzhnAaQZM2OpttJApJoGmGY9GjqKc/9aEfnk2hKqY5cag4gZOv3bXKvjb0JQGxcKSyNkUt0fXPzzpTfW2NtSQ8+X00CBEr5KTD5ZjnJ9cIcEYzwJlQCBwgOm3NoUy95Ztx2tWHaNdlTkwBBxJPlAMgD5oPqfrN12R09m2xzcYA+V7MsAV8pPTBQe1Kue+N6riYBwpcBaXEaQNIWfDGcaZh0tYJcye/4s6/s8z6gezx8XI3pHsqRmgUIpMjC71bZvUmbsZQLIzAmlD8H5sN4brNcARyr3h8mB+efU7yurFmA8DX06eGc+c3K7CjwPdAlIEgSyo8DnFJr61rxbox7XBf3SVG5uFDTAOGDI7jcBTYGUBfhAGJCnXNgFrpWrRanxDX7yPxDt3Umdp5DfK+o+SbSr4fzRyiXWYEdOE+kJZEinbZcKuYzLYo5XXf6dpefd5pBzC+oeYDw/azuyDE2hZ0A6Z2EB8rZhD9dCLNulqlDZK3e8ur+Wzm35Ly5Bk7WBUC6d3feX75KrrW9r/5rQGFPNHYba+RzLHJH5TxIUMy/3ba37BpMr8XjugAIX9ym58gFB18ty3b5XeZr5FyRAUlXK5MpOPoWzjqUHiZd95TIPa+ia9VLpmyySTyXVDOfJ5/9ugHIytXl5BdnSJ8P54nsekkmayhFOMqekM+BT6GYw0yepsv+ITIXEuWt2SI/vj6ea56nH6aAnboBSIMr7ylf3psrchW+hiatCZA0Jl2tFEvmIIiS6W91L0IvLDEiJzoN8rLJu1rerxuALLrSeRwv8hf6Mqc8KPLCx3rkTctdq49/XK97izAR6qMv/aefNlPkzVn+MaLHXLT4CucRP6W29+oGIHyNi690fgchcbO+0uOxN9+Y10AXFHa36pUwTSAFDg4Mkr5CQOqHDQM5eHf/kqucKamTdfJXVwDhO23oLpOweZH7/Fr+MhDZl12tep3DTslhrhL1EOKyY5k7pRmIv3uuHtTLtu4AsvASZ1m7mwLJAr7k+94Q+T0UUJPWRlcrNb/BTKzx/Y/niywwljB4+gMRpimha3Vu69XODD2ul23dAYQvtvUqZxq8FSlJUkSAXPmkHnkuKOsAJIzvVA9EhfwzY7T8tU9FngJAlKh3oGsVkLV6tra3cLioT1rx0kXv9hgJNztHxpIDz2LVdQyAyYjBPPJCltIdZRlcLWqZ6GP11hz/Cad/IXL3q/4xwHEPwHGmn1Jfe3UpQfQVU+FEgOtb9Zj6yCPv6hEGxKC0U5LUKnFm4Ouz/KfjOMdtU/3jzdeV75e0yHF+Sv3t1TVA+LqfOkd+dsA2/os/7gaRfxl9736QKvA7qkl6daYI9LEULUOkEo6UKw1sxoDgGIRQmuJkBcDQa+phW/cA4Uu+7SSRHQb5r3vkxf4+9+jUOADWrVqiaZAc5rLNlzzsPx1X5xq/S2psSC2+/sk626trgPQ72x174DVyyl0YKX58ssj6+GoqtZydOZpMgNQKSF6GEq4j4wvgjPjv9+lTe9uz9vbcSp6dLj36TXQPyzxbX0d1DRC86sEIoXnxT24TeQJWm7d/lbmeyFY4NvvotQAS+KOlF7x5/3O43NC/wKCJ+3jGClqy7p8mvWHEuG/9yS46mvVJ9Q2Qdhmsr33aZ97ee78WWbuvporsfbnI39/xj+MMElrqOFpO+ifcbO582dvX/0vHiWCWYIrozav0tSsjdb/etvUNkJC3ff9ZIjsO8U+Ov1Hkhuf9Y4IkToo7Jzw9+aEfz+q56bDWGS4kNGf/+WSRLdfznzHZ8ziQACSkJVx5jMgRI/yT590r8is4OCpRcd+gnx5V75bWqWf/5dfvUUjDx9/zj9dtErkD0XQ3XstPS/Z8DiQA8XmRtXfOviLHjfKTr4YZdNyfRKZjTgmJMbY2hGJfrTMSORvwlZmpqgqV8T/DA+0FAyzbDIRkPEFkYAyA7j1F5f8TgHTC8zP3FDlhjH8Rlfkj/ijywJteGlfSHQSQrN7Nv6Ya9giOd6CEk96dI3LrCxjf+dI75v/YzaGgH5cZ/sg299y/oz736hogDnoW+trfmOXtUb8Ixu89ZTeRCw5KxYBKXcS52ifeIvIfj3j3MM7WBuiqcOS9GuiThT44nnxf5K5XMsP2UCpefHimQyaV948X+LX/cqm/X897eLV1TI58o0//GBoSV0zq2zFyzgZjBmk+cFuRIQPg1PgEGt8c765LHxXh7MRz0RXbbgOR9WD96gmOLoAbvY5Qa/6V2GJd8tQ8cm7pNvLMhyIfoH5KDNXDbuNhwzXF3xIcOnDICVK6zyvgtGlAx7+nHvZgv6hf6jlySlv/3jIOIf1TfLj3DZGf7O4t18agckFHRZpA99rCG2RTPYRuKfe87nkAjxzqzUzk/HYErBOEGqoYUWp8AEdDAvt5mHMxhiFftvrFb9hfZMohMFtv6afpHmPuzl7sHfH+Pz2jZ0T69ZL5X1zqnOen1NdeXQPkoVunnDV8kOzyjw4HRUoQNurdNvW6H5QCXA/DJJpEx2wCBb27yMufeGd4zzNolK9gcG0QGiIljQbIDt5v5hXFPid9vQ+jARe1YUP/K8D6KuqByU1p2nkjgOOHIlusm05K76TuB7CUrnnSi2jCY0rTnYbKGjsePuWfb/71oo6n1SvrY1u3AHn6I/eh9frJeDrlseuhA4VT0QwO2hbjHJAWtFIhtq9VEmw9EI0HYyU0o7JhkmZieyf6+8BVym1lPeglzIONFYv6RErMk1KDUVq+QHfqpRmY/DXNmyWpBTVDnzp5V5Gf7ec1dk3XLfN4D+DQWYNPoJtpdsm229C7D5eN3+WoKfNeu/cilFBfBD21/uj5Ge60Ab0loyd+3t2+CZSAWXC5x5cVqwAAdD8wLyKUHnkHYwkvicwweupU9I/eUeQo/OgIuQh6AX+mXhOaYScnOPOPMavYmKkv8GeG6OHthw4TORbKuOlfFsyWXbK5Hd2wz/GMf3zav2LTdUQ2Wds/5h4CVV9x3bHO5MzU2j6qeYDAIfFQx5U/4DVuhAlRb99+mjRhkA9NNpM+QeOecAcCO6DLQmLj/s/jvP0l6HrNg9k0F1GpvR0gIVCyGuv2Xn5jN4PEwXWcpFSMRKFlaQ6kBbt2BAXNt0EaMdgDxqihwTOZxwztM73D7Evw/9/7/fN0tRkB6Wij56fLMizi2QfnPkHjOR/RYvBpqV2qWYA0ne3uiVhYF+HVGaMY8EH6ZfjL/NtbMN3+3T9/5ykiP9jKOyZACJTO6KN5Ig+9DVcOSJXl32VezW7bmI1F9gBQRm+Kc+A+leJcRIkzE9Limele0DaOZdjWJ2eX76DtRH4IMHZG7BbS3V31lLteBtg6xkx6okvIrmPvHvZc/g4emYRHmAZ8TUHEmIfM9FrZx/PVFjVPcsfgizgJo9tHBJ/sAOgWFx4UTPWP2d343cMi9GRV+vDX0EfwRaXCzq5WUDrodcEtzawECX/ctxHBwrzR3ZNm/DTkEEMRUa+htKAlitItjHYYLHIwgLFvB5DDrjPTqW8p2N+enTnF9rAdvPqE1ZmRFecsMnPz9sHzJ8DzK2sNKDUDkP4T3J3cBjkd7fiE4OtjP5wmzjBnPH5JGbSA/fpv8NW/+QXPKsR8doPF6oEzvRypsM8CSAohShGC5NH3oBB3fKULud92LS1p/MpTYuwOaVQIMbSPmnQXLsO4zuP+3bBYycEdEohWMYJEFXj/KuhnuG82+EXjQBY58jdYKa6vFaDEHiD9Jri7Y63e8XiQk4Iva1MomaeNFaGZM4zYryc42O1Q4hjHbf/UI5FLIItO7uioUdGeDyW5GKKV6xXoD6/NRL8Ev0JMwHQqHA2wUuHnoCTGJwomPuu7c/3brn3S/xDQmnfK7p5FT68gOAiSsHXRGViOQKGCb6FHIFFuWnSFc4/lXGySYguQlknuka4j4/G1OjjIbTagQ/Al3G+b4Bn/OGWexcsNc6mgiwZHopU441Cn5X6Or2twEFGvK2TLyVj8ivOLzBH55QAp4t6m1k/Essqy9Xped2eD/rAwrFlIztnXsmvIcRo1DjyNZ3sKz6h00m6YPTZAjzK3NCrMBQhsq0zxSs5OJFD4s1j7nkPaTQiQcWtmrvE4ihVAWia4fd3GFCjGg70jgyympKBLyJ5bBM/4x1SKqWtwzT1VUv2zmXu3vgj/JHRJSHQHf+kXXqwsKs6f5nG/d2fufxoGtEtHxZiDlBruE+M0cjIa7n5b584jn7NvzkYo0eXelUEJuQ/0l93y6KpRN+IHJWh80PL50ZkNKUmgBM3ZkCavASg3NzXLTTOnOLgyHhQLgPSd7G7crV3GQ78gMIYEWbvH5l5/PFdXimZYAoNdhnxdQHjtzc/7lqaJe3oj0iz/a+RHJbpY+usbIrcAgEEJRkOCAkTzXr8F3Z9dRdiQiyEOKOpaH2zElz+KBtzm5US97JhRheXaGVAIIJUoFh3mA5R286pVctOyax3AqbqpqgFC/QJdjqPBQgJjjSArGa6Hiur2GwbP+MdcY48NneDoTGL4d/l71Bn+9qZ/fPPxXveNKXRK1K+yf0Xuvftex3jJ1MyAEHrHngD6bw9HKNRH4DICAAWJbiz0LM4lIYP30HHRnFd/z2swF6NrR6IrCXU0bouhzoBCaZ0CCmBg0bdmUaK0gx1Lr3L+VUz5lbin6gDS9BO3uWF1GYeKjYPEwDc7kzjvgqCgOwgCm4US+8t/fMZraGxQe+BXLN2HRqXu8HREfPF8+Fzhq06i6dfy8r2Txj8b5l2v2hVadqv+H4DBEXwlupAQJDagDIU+cvxou+Oh3s8t9QG6zmj9OA/dnGp7NDqpWw007yhsfyGU9BuehX6E7ifHYcJ0FEoRlShZ3TNXVqCad8ACeXvrFc5ThdWg/FdXDUBaznFHtbcBGK4cBS0Vgj+TGBaUwDgQv8H4koYRv+iMNfuXlzPjy/4GDbBY4sDcLTD9UpkmHTZM5MYfe/tUej/J0VHgXAxKDTaQIG2zvsjVx+aebMUBvOufyxyb0XzoCsK5HWFjILRYaReOg403Ih+lXTAGsz8+MqXQTchPu24ECI0iBA0ND2j0WUQJrkCxDXbinsdx4+1LVsgdcr2zMiuDLkjoUoCsd6rb65teKVCMw7Pvb3t+divook1wmNFGgteyIRAYBAgjk5vBl+k2cQgadSn0PhrbnS/5Ofz6EJGz9vCOW1egbJRvEqXFAwCGOjKa5+jndNRO3lTXbQGSXER96bl/ed1Eeumag5h632Yd+ZnKPCd1UQqRaMEiwHWAb4MWkVPHpk6V9MdBQ65ZqESQHAWpxIgoChTbwCrBw7qw60swZZErH8JCeTukyh2t/9+BDOw66hKAwA1kONxACAr+0HyzaTS+cAQGf2bXw7ySo9sEBX8q3oPg0Jdm3lfs/mPvenMt9P6/nYWxCdST9AVeNOvArtQDb9hHv9kl/NEIEUYuJK3ZWyRfgHh35AYKFe7Dh3uDhy8BTErUoahLkRix/nQAe91+3nGp/7n4TYlBABAs5jiTWSbHUggUjqVYdMTl6E3c7rbJHUuudp4176vUPthVITrSbWweCEC0p7pQ+P5mUwvUcAUFG3YYsU9LUFDxNme+5XpZYXkVks4+PU2yny7w7tpxMCYmneEtAHoj0q+Hxcuc9615b4GGS+/aXt01xdsWAxDNgY0qTKJwPGPYhiLDB3sDkpRkShwp54h5lJQP3+kESqAQEDZKWRkBEj5XCJgewX13LG5G92uKA+hVhsoOkJbJ7lYABRVuSgvYabKJX1EFRq4RYjXVEhxB82E+Lym75MJTOH5yC4CgpuJdN/Ekx9tzsvOiAkydCW7iVioFIJphLqDQz4tWrJX4oJA4gHrEjt5+1P/58p9Kuna/lIfBulCa8LloJQsSGiy7X392V0KqXOt8Fjwf9XHZAIJBvVHtjXISlO6TbZWmNWpvWJYIjFEb2a7w01LuHWAWgWGb653vy/FzLG0vaA0K5kbl+wdQWGlYCCPWedpMr9H+7gj7VRz5vu5pr5FP2Nt+jabmAgqvoXQ+c6/cBgHNq9htIe+B4KA04S9EYqSmHlCX4ih+EEzoKn6DtnArpPrdGKUHl8pDkQOk3yR3txQo6AZioSFrYsALoCAwck3mobSg1Yh+TzaLh2ZdyEvRe6LY/s8rfvAGzW9bfKH5XJzJ1xmZFqBr/g3dIXSJgnQjJBV/pHxN1WFA+fFoeAOs7eVVzv9i3kcrpByNKwSLRQ9JTQngc4W5u2CUfiqsX3ejl3IvnCRnRfl8+I5HQ/0nu3u3t6ekBc20WbQrbP3ajbKcTl1P5nC2HIHBHx44JxXzMnJmWMBJjmpzRh5HpBkQgco3v9JdTXRPocWOoVM5IMmPC4FRCXDw2XW8Sa2IqXkmMLnTuhVG9Dvjjw6TKlXM8RIaNTj2wx89iAkW04ESUmRn5L0z2tVvEI3+Tmgotyy+xnkxrLxC0ksGSPME90CMdp8EcBwWLJjzHAgKNiZbwAC9ns5ulBQERdgEIvZbH4SyOQZAo5m0K8HBelNKTNrHi5SeSxLqM1Z6S6CcC8M5QxSxy1dJygUSLvHG2ZB8h8MGZdaKC6ey3vxRqVewmB9KWt/4o9RJSZUlfpvBdWtAmpyMGDUnN090/weAuXnRVc4/Mksp7KhogDRPdreB8n0+ijvWfAAWT6WboCA4wvrhBAKj/xEUOnknV9U5YsuvCgemaOHSGXC8J0pTbq46BM/RoJDLqBC8viuOKw0OfUYbSFqf8QdM+f4o1cIMGPwA8adShR9I8+OpUod5sOtFsDBCS5oczzAEiXITQjhduPAKB9AsnIoCCGbtnd8BjiYtknGkFBS5nAY5VjAPCjd/6jCneeTa0puWA1OkagCHV5PkPxcHgiAxvQkIjDBwmHlyCjCdNddD90vHVEydlJPHBg3wfvzYKljUmAOJciJ67mNgNLpg0dWFz00pGCAAx9/xAAfoQ9A36ZiRnuLNvngYsfIcbea2GKI7NtftNvumZFyuvm0x5XTlPfTi/ecM2MN37HwAsSvrWUjZBAnNteZHjfcfsF0huXgDnDRbq+maYGEXzCQG9uNPpQqnKtPtHjrKpphUdzfa7u+hxLPXkzcVBBAU8D5yxiN7tD9MmccCHHRWsxElhEoLSo5SiNNVTXAwL7orcE41rUdxJ3YhfvuQ9xR0z7j0yLg/kVd/AiMIDp55b47XNS7mKZvRteWPuoptTIVB/TaBjrMOzn+CjyojuHTQz6GbDFl8lXOUJnS2zRsgyJhNPDXkRalxwUGwWFiH/bwiOY2VFTP7jZ1VJux8UCHvvhr8i6DDkLimN0e4GeQszkSDhtL6eLG1QAQGI6bYKAUanCulB0Ag8LcOOvrsWqljppbHLhzbxdo4P21mRyp0E3zo14Ik2UOvy7WF5tA5IcPnYbpNgYMi7pJx4eCgPZvzD9gdKgc4qJCfursnarXm9H+iZaTSROByPIPbKOjBiXAfPz5zuYVS86UfFiMu2r7ipead634bOAgGcy6L7ZpceYado/WL42v0dbPpNQRQYMbkWCjvl4XlZ6Z3CpDms91LccMY3kSRdhnAYRvU4nlGCOfUTro3REFByaHWKoKU3rDcKt0LkOicDU0r51brRqsafaKiIEoROhwWO4EpWAd+Nemk+MZn3pc8qqgqwXKCx7aGT3Dw/VEnKQdIWAdaFOneo+ssmvUicMwYBVDez2mZ6J5sXmPbzwkQoOwEjNb9TG/klztM3+BiLTbXbr230K02QL1PwaHHNpCkJjahMZSbgnWr1CBcoc9Ft3aTODeFbvvlpFzg0HLLCRKWwTZK83CQ6BXOAWsl+HT9FwTAgXps2+YECDT/Y/UmrtcXNjGHXSqOaURFwQYYBIeWYwUJuhOvlxEktrodvoPWqLq25M84SFol6mrUCcwA1Xouim0+4NByyg0Sfhxsg9OUzojo75Prt3E/0d8LBUjTRHcv+FTtzUsZk4lTPG1EB8KoulTM39YAcylyNpBwbQx2L6KmQusWdfnF5MeBQtODl+MDlCQfflFMbuH3FAIOzaXcIOFgYlCKsmyOxFNd6KBjU4PeehTYhgIE7iNp6XEk7PJBPyOulHrbVC9mbCDPog+LbYA2kDzwerQgKbZuRTMjwhvp5k5fMSX6vBEkugiQphe7LQYcWla5QcLZjXSfN323WLYBELiI+21d66XbcIC43mAgp3OayyHzRlqnfvVXRD9/2mO0zW9fC8h3W2oDDAOJbYpqvnXS60qtm+bTlVtGfmHcXSWOUbG7xWDbpVAp4NByywUSGiUY24wWTvYoTE9hmn7VTaixUY7RugS3VoBgyYCxuBDQ8Abh6EYSJLW0EBz8GpUCkqgaoA0kjApSipUpqroF+dcVx+x7m3PzOceC7842CzKf+kUBDi0napDQGMFnU6JLCnqXGaTTEtraZBDa/PYZJzsOLE0fZ9plrF5sU3Tofmx+jUoBSdQN0AaSBwESnZOtz5XPNuq65VNmua9hAAsNUM2yODOTkkQjSOZbfpTg0DKjAgn1K87XoVFCiXkHP/QcjTdorLGf3rUCBDbi3fUKG0BosaLzoGkhKQYk5WqANpCYgQv02XJty1W3XGV+vcIb1Mt1TRTnOCedU4GV6NrCry0Hd/OhcoBDyy0VJHSnJ+DN7hSNPCMGawn+ViUIU2CQSrd5/wr4gJkHxn5qCI52Y4bdCZJOkaSFhAq8UiEgKXcDDAMJV2fqjMpdt7Dy971c5A+Pilz0YNgV0aVzmjPDnCpRr2TDmtEJSMoJDq1LsSChPkWgm3GBdYCSXsH8mcSeEKO8kDAmgiHabLICBPf04aVhqwyZkc3pKGhaSPIBSaUaoA0kD73pLXiZzQovpVJ1C5ZvuuUEX2Tw2qiOd944c3Q5BRI0sLAFeyoBDn22QkFCPYrgMOeuKzg0T5sbCnUTEmYhpoSCd+T/WwECK2Dq4j7d/QvNPZUgmkYLyeGGGTEXSCrdAG0g4TJiXBU2SJWum1k+v2YXHSJyxh4IYjHUPFPefa45su/Wfhk0i1KSaGgjPVNJcGiZ+YKE+hPrbEa6CYKDearVSvPntlsHQBoaxDL2HtLFyiVBKL7MimhhjMPUmeLeVQ0wDCRTP9baFz5A6d8Z3R4nnP3bzt4SCNHl2nlOqXgBKFuJATP4NWa4UlJXgMMruXPfLXYJWVczgqMNHMyPkXSCpABBulWCWG5JZdGL/73wVQuS2RUInqMZkZaDB173zqgkoWMhbdI6kZ9nw9xHgnlGdawgITNZLxInKKG6Kdf5rqxbqjJd/Mel3PjuuHAQiXNvyCsq9OZCOzwX1gB5rhxESULSd0TACiTGjqgb62i2yVx1C1qxmKemwcOgJ4+DFAaQ4HXpY7My6URjZ4fBHqM1Kjkb403PZ052qjQ4tHo2kJjRznldV9VN69iV27Gbe3HHKOlJtKp1NTi8mniShPsmSBhVJmit4vsLo7AQtmHXM92qg+S6YQVMgp0Rbe0/HOZfZc4E7OoGqCDhNkhdXbdgfbrimK7oYQuD5vo6V6KuQZ2kEHCwfhUBiE3/sDGHcZkY2sUkzgRUcWmmV3qf4BgyILvUgS3ZafWYwqmqQeIs0iZrJyR4ZXmPh2L8LahL0CExl+TQGqlJV4/z2RYsQfLJlNdQTAf9fDhN1tQB8s0r6utYN9t4yKPvZEZvj7rcOORnU8hZbyruHJ025ndX/HEYFYV1CH6kmU4rVjmoLAAJWqvMUPuquKuiXI6HypVnsG6c7GR2t4JLHOTKq9bO2cBh9gIY4I8NMWTZ57KygwE6WLYZ8seUGra6R1GhyAESbIB8iDP2zFzNqKtAYqsbY9YGp+8SJM9Nj4K98cnD1sCoc4zfJTO4eAok+IozUFuliIBkz6P1W79E1o2/ck3f1ZIiBYitAfIhSFzyy5wTXGmQ5KqbTXHnfJdnuwAks77y+FXJ/zBw6Beafls09yoxLCi/5oyTW24iEAkOAlOJbUrrFlTcbc+i9xWzjQwguRqgVoyjtlwWQKlSIMmnbjaQPEGQfKi1Lf/2xJtEjv6TyFVPlL8sLcHWoMwGqNfRA5iGFyWG+WTDDU5E0vNRbAlAApGAVLLVrZwgiQQg+TRAfcAxAInp2lBukBRSNytIMHD2TAVAwnn9uqZg0LihvIt6my84tFya7jnOpcTIhmzAX7ZqSnRbAo8ANOPt2sChJZYLJCUDpJAGqA9D1wa6VSiVCyTF1M0GEo4uM69yEkMp0buWoX+CUc/LUW6h4NA6HDo8s36MbMiGHAzaptcXs2VetFaZoUVzgUPLKAdISgJIMQ1QH4aBvPa2gCToCKnXF7otpW42kHAEt9wgufAgLPEwUeSkXQt92sKu57wPfvlNyqcB6vWM4mJGsmS8ZTboKN4dB5WZlxnDuZC6RQ2SkgCiw/5kHJUmPkghxBHbvbb076AkiWIOOXMstW42kAQ9XP2ax2tvdsAQUEgD1CdlnAIzJnJU744zP5mXUjF1s4FE13PXfPPdlgSQ4YO9YooBh1aQ/j801TX19FIYGS8KYt04cl9K3RQkGjrGNsIcRV0rnQdDcarrdzENUOvLyXLkL/lMXo3EJKxSiXkwL1IpdVOQsF1xFQCb54RXSu7/gp0VzewOGw4Xd/xKJT4Mf1FSVHXjyzp1bJQ16/q8uCw1f1EQG3GURJeWzhYszbe8KNpVSRIk34om1yUciCsHEoDE9c0l9a4IBzB5MJuw3AHnESWUcKCuOIA1Q7LwkEiQumoCycMWyoEwgEwtNKPk+oQDMefAkv6T3Z2Cz5AlUvSCjvCjephsy8ABMH8g+rKf58oac6W7Y6IPhs8SKjMHliy5wnmzzGUk2SccqC0O/C8ZEVdljREjugAAAABJRU5ErkJggg==;" vertex="1" parent="7mfvvXFp1FGG9PbwMvhJ-111">
          <mxGeometry x="60" y="45" width="90" height="90" as="geometry" />
        </mxCell>
        <mxCell id="7mfvvXFp1FGG9PbwMvhJ-116" value="" style="shape=flexArrow;endArrow=classic;html=1;rounded=0;fontSize=18;fillColor=none;strokeColor=#4472C4;strokeWidth=2;endWidth=11.428571428571429;endSize=2.0428571428571427;width=6;" edge="1" parent="7mfvvXFp1FGG9PbwMvhJ-2">
          <mxGeometry width="50" height="50" relative="1" as="geometry">
            <mxPoint x="566" y="520.0000000000002" as="sourcePoint" />
            <mxPoint x="566" y="599.9999999999998" as="targetPoint" />
          </mxGeometry>
        </mxCell>
        <mxCell id="7mfvvXFp1FGG9PbwMvhJ-117" value="Miner Group" style="text;html=1;align=center;verticalAlign=middle;resizable=0;points=[];autosize=1;strokeColor=none;fillColor=none;fontSize=18;" vertex="1" parent="7mfvvXFp1FGG9PbwMvhJ-2">
          <mxGeometry x="526" y="820" width="120" height="40" as="geometry" />
        </mxCell>
      </root>
    </mxGraphModel>
  </diagram>
</mxfile>
